<?xml version="1.0" encoding="utf-8"?>
<!-- Generator: Adobe Illustrator 16.0.0, SVG Export Plug-In . SVG Version: 6.00 Build 0)  -->
<!DOCTYPE svg PUBLIC "-//W3C//DTD SVG 1.1//EN" "http://www.w3.org/Graphics/SVG/1.1/DTD/svg11.dtd">
<svg version="1.1" id="Layer_1" xmlns="http://www.w3.org/2000/svg" xmlns:xlink="http://www.w3.org/1999/xlink" x="0px" y="0px"
	 width="891px" height="265.5px" viewBox="0 0 891 265.5" enable-background="new 0 0 891 265.5" xml:space="preserve">
<line fill="none" stroke="#000000" stroke-width="6" stroke-linecap="round" stroke-miterlimit="10" x1="36" y1="98" x2="839" y2="98"/>
<line fill="none" stroke="#000000" stroke-width="6" stroke-linecap="round" stroke-miterlimit="10" x1="36" y1="181" x2="839" y2="181"/>
<line fill="none" stroke="#3FA9F5" stroke-width="6" stroke-linecap="round" stroke-miterlimit="10" x1="59" y1="110" x2="59" y2="170"/>
<line fill="none" stroke="#FF931E" stroke-width="6" stroke-linecap="round" stroke-miterlimit="10" x1="97" y1="110" x2="97" y2="170"/>
<line fill="none" stroke="#3FA9F5" stroke-width="6" stroke-linecap="round" stroke-miterlimit="10" x1="135" y1="110" x2="135" y2="170"/>
<line fill="none" stroke="#FF931E" stroke-width="6" stroke-linecap="round" stroke-miterlimit="10" x1="173" y1="110" x2="173" y2="170"/>
<line fill="none" stroke="#7AC943" stroke-width="6" stroke-linecap="round" stroke-miterlimit="10" x1="210" y1="110" x2="210" y2="170"/>
<line fill="none" stroke="#FF1D25" stroke-width="6" stroke-linecap="round" stroke-miterlimit="10" x1="248" y1="110" x2="248" y2="170"/>
<line fill="none" stroke="#3FA9F5" stroke-width="6" stroke-linecap="round" stroke-miterlimit="10" x1="286" y1="110" x2="286" y2="170"/>
<line fill="none" stroke="#FF931E" stroke-width="6" stroke-linecap="round" stroke-miterlimit="10" x1="324" y1="110" x2="324" y2="170"/>
<line fill="none" stroke="#7AC943" stroke-width="6" stroke-linecap="round" stroke-miterlimit="10" x1="360" y1="110" x2="360" y2="170"/>
<line fill="none" stroke="#3FA9F5" stroke-width="6" stroke-linecap="round" stroke-miterlimit="10" x1="398" y1="110" x2="398" y2="170"/>
<line fill="none" stroke="#FF1D25" stroke-width="6" stroke-linecap="round" stroke-miterlimit="10" x1="436" y1="110" x2="436" y2="170"/>
<line fill="none" stroke="#FF931E" stroke-width="6" stroke-linecap="round" stroke-miterlimit="10" x1="474" y1="110" x2="474" y2="170"/>
<line fill="none" stroke="#7AC943" stroke-width="6" stroke-linecap="round" stroke-miterlimit="10" x1="511" y1="110" x2="511" y2="170"/>
<line fill="none" stroke="#3FA9F5" stroke-width="6" stroke-linecap="round" stroke-miterlimit="10" x1="549" y1="110" x2="549" y2="170"/>
<line fill="none" stroke="#FF1D25" stroke-width="6" stroke-linecap="round" stroke-miterlimit="10" x1="587" y1="110" x2="587" y2="170"/>
<line fill="none" stroke="#FF1D25" stroke-width="6" stroke-linecap="round" stroke-miterlimit="10" x1="625" y1="110" x2="625" y2="170"/>
<line fill="none" stroke="#3FA9F5" stroke-width="6" stroke-linecap="round" stroke-miterlimit="10" x1="663" y1="110" x2="663" y2="170"/>
<line fill="none" stroke="#3FA9F5" stroke-width="6" stroke-linecap="round" stroke-miterlimit="10" x1="701" y1="110" x2="701" y2="170"/>
<line fill="none" stroke="#FF931E" stroke-width="6" stroke-linecap="round" stroke-miterlimit="10" x1="738" y1="110" x2="738" y2="170"/>
<line fill="none" stroke="#FF1D25" stroke-width="6" stroke-linecap="round" stroke-miterlimit="10" x1="776" y1="110" x2="776" y2="170"/>
<line fill="none" stroke="#7AC943" stroke-width="6" stroke-linecap="round" stroke-miterlimit="10" x1="814" y1="110" x2="814" y2="170"/>
<g>
	<rect x="11.194" y="188.086" fill="none" width="24.806" height="25.582"/>
	<path d="M12.778,202.702c0.6,0.384,1.992,0.984,3.457,0.984c2.712,0,3.552-1.729,3.528-3.024c-0.024-2.184-1.992-3.12-4.032-3.12
		h-1.176v-1.584h1.176c1.536,0,3.48-0.792,3.48-2.64c0-1.248-0.792-2.352-2.736-2.352c-1.248,0-2.448,0.552-3.12,1.032l-0.552-1.536
		c0.816-0.6,2.4-1.2,4.081-1.2c3.072,0,4.464,1.824,4.464,3.72c0,1.608-0.96,2.976-2.88,3.672v0.048
		c1.92,0.384,3.48,1.824,3.48,4.008c0,2.497-1.944,4.681-5.688,4.681c-1.752,0-3.288-0.552-4.056-1.056L12.778,202.702z"/>
	<path d="M27.922,188.685c-0.552,2.016-1.584,4.584-2.256,5.688l-1.344,0.168c0.528-1.416,1.152-3.912,1.417-5.641L27.922,188.685z"
		/>
</g>
<g>
	<rect x="849.332" y="75.729" fill="none" width="24.807" height="25.582"/>
	<path d="M850.916,90.345c0.601,0.384,1.992,0.984,3.457,0.984c2.712,0,3.553-1.729,3.528-3.024c-0.024-2.184-1.992-3.12-4.032-3.12
		h-1.176V83.6h1.176c1.536,0,3.48-0.792,3.48-2.64c0-1.248-0.793-2.352-2.736-2.352c-1.248,0-2.449,0.552-3.121,1.032l-0.552-1.536
		c0.816-0.6,2.4-1.2,4.081-1.2c3.072,0,4.464,1.824,4.464,3.72c0,1.608-0.96,2.976-2.88,3.672v0.048
		c1.92,0.384,3.48,1.824,3.48,4.008c0,2.497-1.945,4.681-5.689,4.681c-1.752,0-3.287-0.552-4.056-1.056L850.916,90.345z"/>
	<path d="M866.061,76.328c-0.553,2.016-1.584,4.584-2.256,5.688l-1.345,0.168c0.528-1.416,1.152-3.912,1.417-5.641L866.061,76.328z"
		/>
</g>
<g>
	<rect x="849.332" y="183.496" fill="none" width="24.807" height="25.582"/>
	<path d="M859.726,186.711h-5.952l-0.601,4.008c0.36-0.048,0.696-0.096,1.272-0.096c1.199,0,2.4,0.264,3.359,0.84
		c1.225,0.696,2.232,2.04,2.232,4.008c0,3.048-2.424,5.329-5.809,5.329c-1.703,0-3.145-0.48-3.888-0.96l0.528-1.608
		c0.647,0.384,1.92,0.864,3.336,0.864c1.992,0,3.696-1.296,3.696-3.384c-0.024-2.017-1.368-3.457-4.488-3.457
		c-0.888,0-1.585,0.096-2.161,0.168l1.009-7.489h7.465V186.711z"/>
	<path d="M866.061,184.095c-0.553,2.016-1.584,4.584-2.256,5.688l-1.345,0.168c0.528-1.416,1.152-3.912,1.417-5.641L866.061,184.095
		z"/>
</g>
<g>
	<rect x="11.193" y="75.729" fill="none" width="24.807" height="25.582"/>
	<path d="M21.587,78.944h-5.953l-0.6,4.008c0.36-0.048,0.696-0.096,1.272-0.096c1.2,0,2.4,0.264,3.36,0.84
		c1.224,0.696,2.232,2.04,2.232,4.008c0,3.048-2.424,5.329-5.809,5.329c-1.704,0-3.145-0.48-3.888-0.96l0.528-1.608
		c0.648,0.384,1.92,0.864,3.336,0.864c1.992,0,3.696-1.296,3.696-3.384c-0.024-2.017-1.368-3.457-4.488-3.457
		c-0.888,0-1.584,0.096-2.161,0.168l1.008-7.489h7.465V78.944z"/>
	<path d="M27.922,76.328c-0.552,2.016-1.584,4.584-2.256,5.688l-1.344,0.168c0.528-1.416,1.152-3.912,1.417-5.641L27.922,76.328z"/>
</g>
<rect x="5.5" y="65.5" fill="none" stroke="#BDCCD4" stroke-width="5" stroke-linecap="round" stroke-linejoin="round" stroke-miterlimit="10" width="337" height="65"/>
<g>
	<rect x="225.705" y="7.542" fill="none" width="110.861" height="29.458"/>
	<path d="M227.529,8.621c1.056-0.216,2.568-0.336,4.008-0.336c2.232,0,3.672,0.408,4.68,1.32c0.816,0.72,1.272,1.824,1.272,3.072
		c0,2.136-1.344,3.553-3.048,4.128v0.072c1.248,0.432,1.992,1.584,2.376,3.264c0.528,2.256,0.912,3.816,1.248,4.44h-2.16
		c-0.264-0.456-0.624-1.848-1.08-3.864c-0.48-2.232-1.344-3.072-3.24-3.145h-1.968v7.009h-2.088V8.621z M229.617,15.989h2.136
		c2.232,0,3.648-1.224,3.648-3.072c0-2.088-1.512-3-3.72-3.024c-1.008,0-1.728,0.096-2.064,0.192V15.989z"/>
	<path d="M241.641,19.158c0.048,2.856,1.872,4.032,3.984,4.032c1.512,0,2.424-0.264,3.216-0.6l0.36,1.512
		c-0.744,0.336-2.016,0.72-3.864,0.72c-3.576,0-5.712-2.353-5.712-5.857c0-3.504,2.064-6.264,5.448-6.264
		c3.792,0,4.801,3.336,4.801,5.472c0,0.432-0.048,0.768-0.072,0.984H241.641z M247.833,17.646c0.024-1.344-0.552-3.433-2.928-3.433
		c-2.136,0-3.072,1.968-3.24,3.433H247.833z"/>
	<path d="M258.922,24.582l-0.168-1.464h-0.072c-0.648,0.912-1.896,1.729-3.552,1.729c-2.353,0-3.553-1.656-3.553-3.336
		c0-2.808,2.497-4.344,6.985-4.32v-0.24c0-0.96-0.264-2.688-2.64-2.688c-1.08,0-2.208,0.336-3.024,0.864l-0.48-1.392
		c0.96-0.624,2.352-1.032,3.816-1.032c3.552,0,4.417,2.424,4.417,4.752v4.344c0,1.008,0.048,1.992,0.192,2.784H258.922z
		 M258.61,18.653c-2.304-0.048-4.92,0.36-4.92,2.616c0,1.368,0.912,2.017,1.992,2.017c1.512,0,2.472-0.96,2.808-1.944
		c0.072-0.216,0.12-0.456,0.12-0.672V18.653z"/>
	<path d="M274.09,7.541v14.041c0,1.032,0.024,2.208,0.096,3h-1.896l-0.096-2.016h-0.048c-0.648,1.296-2.064,2.28-3.96,2.28
		c-2.808,0-4.968-2.376-4.968-5.905c-0.024-3.864,2.376-6.24,5.208-6.24c1.776,0,2.976,0.84,3.504,1.776h0.048V7.541H274.09z
		 M271.978,17.693c0-0.264-0.024-0.624-0.096-0.888c-0.312-1.344-1.464-2.448-3.048-2.448c-2.184,0-3.48,1.92-3.48,4.489
		c0,2.352,1.152,4.296,3.432,4.296c1.416,0,2.712-0.936,3.096-2.521c0.072-0.288,0.096-0.576,0.096-0.912V17.693z"/>
	<path d="M286.593,10.949h-0.048l-2.712,1.464l-0.408-1.608l3.408-1.824h1.8v15.602h-2.04V10.949z"/>
</g>
<g>
	<g>
		<line fill="none" stroke="#000000" stroke-width="5" stroke-miterlimit="10" x1="55" y1="37.5" x2="318" y2="37.5"/>
		<g>
			<path d="M348.348,37c-14.199,5.269-31.816,14.258-42.737,23.779L314.212,37l-8.601-23.774
				C316.531,22.747,334.148,31.736,348.348,37z"/>
		</g>
	</g>
</g>
<rect x="529.5" y="149.5" fill="none" stroke="#BDCCD4" stroke-width="5" stroke-linecap="round" stroke-linejoin="round" stroke-miterlimit="10" width="356" height="65"/>
<g>
	<rect x="583.705" y="8.543" fill="none" width="110.861" height="29.457"/>
	<path d="M585.529,9.621c1.057-0.216,2.568-0.336,4.008-0.336c2.232,0,3.673,0.408,4.681,1.32c0.816,0.72,1.272,1.824,1.272,3.072
		c0,2.136-1.344,3.553-3.049,4.128v0.072c1.248,0.432,1.992,1.584,2.377,3.264c0.527,2.256,0.912,3.816,1.248,4.44h-2.16
		c-0.264-0.456-0.625-1.848-1.08-3.864c-0.48-2.232-1.344-3.072-3.24-3.145h-1.969v7.009h-2.088V9.621z M587.617,16.989h2.137
		c2.232,0,3.648-1.224,3.648-3.072c0-2.088-1.513-3-3.721-3.024c-1.008,0-1.729,0.096-2.064,0.192V16.989z"/>
	<path d="M599.641,20.158c0.049,2.856,1.873,4.032,3.984,4.032c1.513,0,2.425-0.264,3.217-0.6l0.359,1.512
		c-0.744,0.336-2.016,0.72-3.863,0.72c-3.576,0-5.713-2.353-5.713-5.857c0-3.504,2.064-6.264,5.448-6.264
		c3.792,0,4.801,3.336,4.801,5.472c0,0.432-0.048,0.768-0.072,0.984H599.641z M605.834,18.646c0.023-1.344-0.553-3.433-2.929-3.433
		c-2.136,0-3.072,1.968-3.24,3.433H605.834z"/>
	<path d="M616.922,25.582l-0.168-1.464h-0.072c-0.647,0.912-1.896,1.729-3.552,1.729c-2.353,0-3.553-1.656-3.553-3.336
		c0-2.808,2.497-4.344,6.985-4.32v-0.24c0-0.96-0.265-2.688-2.641-2.688c-1.08,0-2.209,0.336-3.024,0.864l-0.479-1.392
		c0.959-0.624,2.352-1.032,3.816-1.032c3.552,0,4.416,2.424,4.416,4.752v4.344c0,1.008,0.048,1.992,0.191,2.784H616.922z
		 M616.609,19.653c-2.304-0.048-4.92,0.36-4.92,2.616c0,1.368,0.912,2.017,1.992,2.017c1.512,0,2.473-0.96,2.809-1.944
		c0.072-0.216,0.119-0.456,0.119-0.672V19.653z"/>
	<path d="M632.09,8.541v14.041c0,1.032,0.023,2.208,0.096,3h-1.896l-0.096-2.016h-0.048c-0.647,1.296-2.063,2.28-3.96,2.28
		c-2.809,0-4.969-2.376-4.969-5.905c-0.023-3.864,2.376-6.24,5.209-6.24c1.775,0,2.976,0.84,3.504,1.776h0.048V8.541H632.09z
		 M629.978,18.693c0-0.264-0.024-0.624-0.097-0.888c-0.312-1.344-1.463-2.448-3.048-2.448c-2.185,0-3.479,1.92-3.479,4.489
		c0,2.352,1.151,4.296,3.432,4.296c1.416,0,2.713-0.936,3.096-2.521c0.072-0.288,0.097-0.576,0.097-0.912V18.693z"/>
	<path d="M640.009,25.582v-1.296l1.656-1.608c3.984-3.792,5.784-5.809,5.809-8.161c0-1.584-0.769-3.048-3.097-3.048
		c-1.416,0-2.592,0.72-3.312,1.32l-0.672-1.488c1.08-0.912,2.617-1.584,4.416-1.584c3.361,0,4.777,2.304,4.777,4.536
		c0,2.88-2.088,5.208-5.377,8.377l-1.248,1.152v0.048h7.009v1.752H640.009z"/>
</g>
<g>
	<g>
		<line fill="none" stroke="#000000" stroke-width="5" stroke-miterlimit="10" x1="828" y1="38.5" x2="560" y2="38.5"/>
		<g>
			<path d="M529.5,38c14.199-5.269,31.816-14.258,42.736-23.779L563.636,38l8.601,23.774C561.316,52.253,543.699,43.264,529.5,38z"
				/>
		</g>
	</g>
</g>
<g>
	<g>
		<line fill="none" stroke="#998675" stroke-width="4" stroke-miterlimit="10" x1="79" y1="238" x2="790" y2="238"/>
		<g>
			<path fill="#998675" d="M55,237.5c11.359,4.215,25.453,11.406,34.189,19.023L82.309,237.5l6.881-19.02
				C80.453,226.098,66.359,233.289,55,237.5z"/>
		</g>
		<g>
			<path fill="#998675" d="M814,237.5c-11.359,4.215-25.453,11.406-34.189,19.023l6.881-19.023l-6.881-19.02
				C788.547,226.098,802.641,233.289,814,237.5z"/>
		</g>
	</g>
</g>
<g>
	<rect x="55" y="45.5" fill="none" width="112.652" height="20"/>
	<path d="M56.022,45.494h1.233v9.945h-1.233V45.494z"/>
	<path d="M60.013,52.274c0.028,1.667,1.093,2.353,2.325,2.353c0.882,0,1.415-0.154,1.877-0.351l0.21,0.883
		c-0.434,0.196-1.176,0.42-2.255,0.42c-2.087,0-3.334-1.372-3.334-3.417c0-2.045,1.205-3.656,3.18-3.656
		c2.213,0,2.802,1.947,2.802,3.193c0,0.252-0.028,0.448-0.042,0.575H60.013z M63.626,51.391c0.014-0.784-0.322-2.003-1.709-2.003
		c-1.247,0-1.793,1.148-1.891,2.003H63.626z"/>
	<path d="M66.34,50.495c0-0.7-0.014-1.274-0.056-1.835h1.093l0.07,1.121h0.028c0.336-0.644,1.121-1.274,2.241-1.274
		c0.938,0,2.395,0.56,2.395,2.885v4.048h-1.232v-3.908c0-1.092-0.406-2.003-1.569-2.003c-0.812,0-1.443,0.574-1.653,1.261
		c-0.056,0.154-0.084,0.364-0.084,0.574v4.076H66.34V50.495z"/>
	<path d="M79.951,48.66c-0.028,0.49-0.056,1.037-0.056,1.863v3.936c0,1.555-0.308,2.507-0.966,3.096
		c-0.659,0.616-1.611,0.812-2.465,0.812c-0.812,0-1.709-0.196-2.255-0.561l0.308-0.938c0.448,0.28,1.149,0.532,1.989,0.532
		c1.261,0,2.185-0.658,2.185-2.367v-0.757h-0.028c-0.378,0.631-1.107,1.135-2.157,1.135c-1.681,0-2.886-1.429-2.886-3.306
		c0-2.297,1.499-3.6,3.054-3.6c1.177,0,1.821,0.616,2.115,1.176h0.028l0.056-1.022H79.951z M78.676,51.335
		c0-0.21-0.014-0.393-0.07-0.561c-0.224-0.714-0.827-1.303-1.723-1.303c-1.176,0-2.017,0.995-2.017,2.563
		c0,1.331,0.672,2.437,2.003,2.437c0.756,0,1.442-0.476,1.708-1.26c0.07-0.21,0.098-0.448,0.098-0.659V51.335z"/>
	<path d="M83.42,46.713v1.947h1.765v0.938H83.42v3.656c0,0.84,0.238,1.317,0.924,1.317c0.322,0,0.561-0.042,0.715-0.084l0.056,0.924
		c-0.238,0.099-0.616,0.168-1.092,0.168c-0.575,0-1.037-0.182-1.331-0.518c-0.35-0.364-0.476-0.967-0.476-1.765v-3.698h-1.051V48.66
		h1.051v-1.625L83.42,46.713z"/>
	<path d="M86.569,45.494h1.233v4.23h0.028c0.196-0.351,0.504-0.659,0.882-0.869c0.364-0.21,0.799-0.35,1.261-0.35
		c0.911,0,2.367,0.56,2.367,2.899v4.034h-1.232v-3.894c0-1.093-0.406-2.017-1.569-2.017c-0.798,0-1.429,0.56-1.653,1.232
		c-0.07,0.168-0.084,0.351-0.084,0.588v4.09h-1.233V45.494z"/>
	<path d="M103.442,51.994c0,2.507-1.737,3.6-3.375,3.6c-1.835,0-3.25-1.345-3.25-3.488c0-2.269,1.485-3.6,3.362-3.6
		C102.126,48.506,103.442,49.92,103.442,51.994z M98.063,52.063c0,1.485,0.854,2.605,2.059,2.605c1.177,0,2.059-1.106,2.059-2.633
		c0-1.148-0.574-2.605-2.031-2.605C98.694,49.43,98.063,50.775,98.063,52.063z"/>
	<path d="M105.119,55.439v-5.841h-0.952V48.66h0.952v-0.322c0-0.952,0.21-1.821,0.785-2.367c0.462-0.448,1.079-0.63,1.653-0.63
		c0.434,0,0.812,0.098,1.051,0.196l-0.168,0.953c-0.182-0.084-0.434-0.154-0.784-0.154c-1.051,0-1.317,0.924-1.317,1.961v0.364
		h1.639v0.938h-1.639v5.841H105.119z"/>
	<path d="M112.175,55.439v-5.841h-0.952V48.66h0.952v-0.364c0-1.793,1.051-2.956,2.956-2.956c0.63,0,1.373,0.196,1.723,0.448
		l-0.35,0.938c-0.294-0.21-0.827-0.392-1.429-0.392c-1.303,0-1.681,0.911-1.681,1.989v0.336h3.936v6.78h-1.218v-5.841h-2.718v5.841
		H112.175z"/>
	<path d="M119.371,50.775c0-0.798-0.014-1.485-0.056-2.115h1.079l0.042,1.331h0.056c0.308-0.911,1.051-1.485,1.877-1.485
		c0.14,0,0.238,0.014,0.351,0.042v1.163c-0.126-0.028-0.252-0.042-0.42-0.042c-0.869,0-1.485,0.658-1.653,1.583
		c-0.028,0.168-0.056,0.364-0.056,0.575v3.614h-1.219V50.775z"/>
	<path d="M123.781,54.179c0.364,0.238,1.008,0.49,1.625,0.49c0.896,0,1.316-0.448,1.316-1.009c0-0.588-0.35-0.91-1.261-1.246
		c-1.218-0.435-1.793-1.107-1.793-1.919c0-1.092,0.883-1.989,2.339-1.989c0.687,0,1.289,0.196,1.667,0.42l-0.308,0.896
		c-0.266-0.168-0.756-0.392-1.387-0.392c-0.729,0-1.135,0.42-1.135,0.924c0,0.561,0.406,0.812,1.289,1.149
		c1.177,0.448,1.779,1.037,1.779,2.045c0,1.19-0.925,2.03-2.536,2.03c-0.742,0-1.429-0.182-1.905-0.462L123.781,54.179z"/>
	<path d="M130.978,46.713v1.947h1.765v0.938h-1.765v3.656c0,0.84,0.238,1.317,0.924,1.317c0.322,0,0.561-0.042,0.714-0.084
		l0.056,0.924c-0.238,0.099-0.616,0.168-1.092,0.168c-0.575,0-1.037-0.182-1.331-0.518c-0.35-0.364-0.476-0.967-0.476-1.765v-3.698
		h-1.051V48.66h1.051v-1.625L130.978,46.713z"/>
	<path d="M137.094,50.775c0-0.798-0.014-1.485-0.056-2.115h1.079l0.042,1.331h0.056c0.308-0.911,1.051-1.485,1.877-1.485
		c0.14,0,0.238,0.014,0.351,0.042v1.163c-0.126-0.028-0.252-0.042-0.42-0.042c-0.869,0-1.485,0.658-1.653,1.583
		c-0.028,0.168-0.056,0.364-0.056,0.575v3.614h-1.219V50.775z"/>
	<path d="M142.219,52.274c0.028,1.667,1.093,2.353,2.325,2.353c0.882,0,1.415-0.154,1.877-0.351l0.21,0.883
		c-0.434,0.196-1.176,0.42-2.255,0.42c-2.087,0-3.334-1.372-3.334-3.417c0-2.045,1.205-3.656,3.18-3.656
		c2.213,0,2.802,1.947,2.802,3.193c0,0.252-0.028,0.448-0.042,0.575H142.219z M145.833,51.391c0.014-0.784-0.322-2.003-1.709-2.003
		c-1.247,0-1.793,1.148-1.891,2.003H145.833z"/>
	<path d="M152.3,55.439l-0.098-0.854h-0.042c-0.378,0.532-1.107,1.009-2.073,1.009c-1.373,0-2.073-0.967-2.073-1.947
		c0-1.639,1.457-2.535,4.076-2.521v-0.14c0-0.56-0.154-1.569-1.541-1.569c-0.63,0-1.289,0.196-1.765,0.504l-0.28-0.812
		c0.561-0.364,1.373-0.602,2.227-0.602c2.073,0,2.578,1.415,2.578,2.773v2.535c0,0.589,0.028,1.163,0.112,1.625H152.3z
		 M152.118,51.979c-1.345-0.028-2.872,0.21-2.872,1.527c0,0.798,0.532,1.176,1.163,1.176c0.882,0,1.442-0.56,1.639-1.134
		c0.042-0.126,0.07-0.267,0.07-0.393V51.979z"/>
	<path d="M161.149,45.494v8.194c0,0.603,0.014,1.289,0.056,1.751h-1.106l-0.056-1.177h-0.028c-0.378,0.757-1.205,1.331-2.312,1.331
		c-1.639,0-2.899-1.387-2.899-3.446c-0.014-2.255,1.387-3.642,3.04-3.642c1.037,0,1.737,0.49,2.045,1.037h0.028v-4.048H161.149z
		 M159.917,51.419c0-0.154-0.014-0.364-0.056-0.519c-0.182-0.784-0.854-1.429-1.779-1.429c-1.275,0-2.031,1.121-2.031,2.62
		c0,1.373,0.672,2.507,2.003,2.507c0.826,0,1.583-0.546,1.807-1.47c0.042-0.168,0.056-0.336,0.056-0.533V51.419z"/>
</g>
<g>
	<rect x="685.595" y="44.5" fill="none" width="153.753" height="20"/>
	<path d="M686.705,44.494h1.341v9.945h-1.341V44.494z"/>
	<path d="M691.045,51.273c0.031,1.667,1.188,2.354,2.528,2.354c0.959,0,1.538-0.154,2.041-0.351l0.228,0.883
		c-0.472,0.196-1.278,0.42-2.451,0.42c-2.27,0-3.624-1.372-3.624-3.417c0-2.046,1.31-3.656,3.456-3.656
		c2.406,0,3.046,1.947,3.046,3.193c0,0.252-0.03,0.448-0.046,0.574H691.045z M694.975,50.392c0.015-0.785-0.351-2.003-1.858-2.003
		c-1.355,0-1.949,1.148-2.056,2.003H694.975z"/>
	<path d="M697.929,49.495c0-0.701-0.015-1.275-0.061-1.835h1.188l0.076,1.12h0.03c0.366-0.645,1.219-1.274,2.437-1.274
		c1.021,0,2.604,0.561,2.604,2.886v4.048h-1.34v-3.908c0-1.093-0.441-2.003-1.706-2.003c-0.883,0-1.568,0.574-1.797,1.261
		c-0.061,0.154-0.091,0.364-0.091,0.574v4.076h-1.341V49.495z"/>
	<path d="M712.731,47.66c-0.03,0.49-0.061,1.036-0.061,1.862v3.937c0,1.555-0.335,2.507-1.051,3.096
		c-0.716,0.616-1.752,0.812-2.681,0.812c-0.883,0-1.857-0.196-2.451-0.561l0.335-0.938c0.487,0.28,1.248,0.532,2.162,0.532
		c1.37,0,2.376-0.658,2.376-2.367v-0.757h-0.031c-0.411,0.631-1.203,1.135-2.345,1.135c-1.827,0-3.137-1.429-3.137-3.306
		c0-2.297,1.629-3.6,3.319-3.6c1.279,0,1.979,0.616,2.3,1.177h0.03l0.061-1.022H712.731z M711.346,50.335
		c0-0.21-0.016-0.392-0.076-0.56c-0.244-0.715-0.898-1.303-1.873-1.303c-1.279,0-2.193,0.994-2.193,2.562
		c0,1.331,0.731,2.438,2.178,2.438c0.822,0,1.568-0.476,1.858-1.261c0.076-0.21,0.106-0.448,0.106-0.658V50.335z"/>
	<path d="M716.508,45.713v1.947h1.919v0.938h-1.919v3.655c0,0.841,0.259,1.317,1.005,1.317c0.351,0,0.609-0.042,0.777-0.084
		l0.061,0.924c-0.259,0.099-0.67,0.168-1.188,0.168c-0.625,0-1.127-0.182-1.447-0.518c-0.38-0.364-0.518-0.967-0.518-1.766v-3.697
		h-1.142V47.66h1.142v-1.625L716.508,45.713z"/>
	<path d="M719.935,44.494h1.341v4.23h0.03c0.213-0.351,0.548-0.658,0.959-0.869c0.396-0.21,0.868-0.35,1.371-0.35
		c0.989,0,2.573,0.561,2.573,2.899v4.034h-1.34v-3.895c0-1.092-0.441-2.017-1.706-2.017c-0.868,0-1.553,0.561-1.797,1.232
		c-0.076,0.168-0.091,0.351-0.091,0.589v4.09h-1.341V44.494z"/>
	<path d="M738.285,50.993c0,2.508-1.888,3.601-3.67,3.601c-1.994,0-3.532-1.345-3.532-3.488c0-2.27,1.614-3.6,3.654-3.6
		C736.854,47.506,738.285,48.921,738.285,50.993z M732.438,51.063c0,1.485,0.93,2.605,2.239,2.605c1.279,0,2.238-1.106,2.238-2.634
		c0-1.148-0.624-2.604-2.208-2.604S732.438,49.775,732.438,51.063z"/>
	<path d="M740.113,54.439v-5.841h-1.036V47.66h1.036v-0.322c0-0.953,0.229-1.821,0.853-2.367c0.503-0.448,1.173-0.631,1.797-0.631
		c0.472,0,0.883,0.099,1.143,0.196l-0.184,0.952c-0.197-0.084-0.472-0.153-0.853-0.153c-1.142,0-1.432,0.924-1.432,1.961v0.364
		h1.782v0.938h-1.782v5.841H740.113z"/>
	<path d="M747.468,53.179c0.396,0.238,1.097,0.49,1.767,0.49c0.975,0,1.432-0.448,1.432-1.009c0-0.588-0.381-0.91-1.371-1.246
		c-1.324-0.435-1.949-1.106-1.949-1.919c0-1.093,0.96-1.989,2.544-1.989c0.746,0,1.4,0.196,1.812,0.42l-0.335,0.896
		c-0.289-0.168-0.822-0.392-1.508-0.392c-0.791,0-1.233,0.42-1.233,0.924c0,0.561,0.442,0.812,1.401,1.148
		c1.279,0.448,1.934,1.037,1.934,2.046c0,1.19-1.005,2.03-2.756,2.03c-0.808,0-1.554-0.182-2.071-0.462L747.468,53.179z"/>
	<path d="M754.427,51.273c0.031,1.667,1.188,2.354,2.528,2.354c0.959,0,1.538-0.154,2.041-0.351l0.228,0.883
		c-0.472,0.196-1.278,0.42-2.451,0.42c-2.27,0-3.624-1.372-3.624-3.417c0-2.046,1.31-3.656,3.456-3.656
		c2.406,0,3.046,1.947,3.046,3.193c0,0.252-0.03,0.448-0.046,0.574H754.427z M758.356,50.392c0.015-0.785-0.351-2.003-1.858-2.003
		c-1.355,0-1.949,1.148-2.056,2.003H758.356z"/>
	<path d="M766.564,54.188c-0.35,0.168-1.127,0.392-2.116,0.392c-2.224,0-3.67-1.387-3.67-3.459c0-2.088,1.553-3.601,3.959-3.601
		c0.792,0,1.492,0.183,1.857,0.351l-0.304,0.952c-0.32-0.168-0.823-0.322-1.554-0.322c-1.69,0-2.604,1.148-2.604,2.563
		c0,1.569,1.097,2.535,2.559,2.535c0.762,0,1.264-0.182,1.645-0.336L766.564,54.188z"/>
	<path d="M774.711,50.993c0,2.508-1.888,3.601-3.67,3.601c-1.994,0-3.532-1.345-3.532-3.488c0-2.27,1.614-3.6,3.654-3.6
		C773.28,47.506,774.711,48.921,774.711,50.993z M768.863,51.063c0,1.485,0.93,2.605,2.239,2.605c1.279,0,2.238-1.106,2.238-2.634
		c0-1.148-0.624-2.604-2.208-2.604S768.863,49.775,768.863,51.063z"/>
	<path d="M776.402,49.495c0-0.701-0.015-1.275-0.061-1.835h1.188l0.076,1.12h0.03c0.366-0.645,1.219-1.274,2.437-1.274
		c1.021,0,2.604,0.561,2.604,2.886v4.048h-1.34v-3.908c0-1.093-0.442-2.003-1.706-2.003c-0.883,0-1.568,0.574-1.797,1.261
		c-0.061,0.154-0.091,0.364-0.091,0.574v4.076h-1.341V49.495z"/>
	<path d="M791.22,44.494v8.194c0,0.603,0.015,1.289,0.061,1.751h-1.203l-0.061-1.177h-0.031c-0.411,0.757-1.31,1.331-2.513,1.331
		c-1.781,0-3.151-1.387-3.151-3.446c-0.016-2.255,1.507-3.642,3.304-3.642c1.127,0,1.889,0.49,2.224,1.036h0.03v-4.048H791.22z
		 M789.879,50.419c0-0.153-0.015-0.364-0.061-0.518c-0.198-0.785-0.929-1.429-1.934-1.429c-1.387,0-2.209,1.12-2.209,2.619
		c0,1.373,0.731,2.507,2.178,2.507c0.898,0,1.721-0.546,1.965-1.471c0.046-0.168,0.061-0.336,0.061-0.532V50.419z"/>
	<path d="M796.672,49.775c0-0.799-0.015-1.485-0.061-2.115h1.173l0.045,1.33h0.062c0.335-0.91,1.142-1.484,2.04-1.484
		c0.152,0,0.259,0.014,0.381,0.042v1.162c-0.137-0.027-0.273-0.042-0.457-0.042c-0.943,0-1.614,0.659-1.797,1.583
		c-0.03,0.168-0.061,0.364-0.061,0.574v3.614h-1.325V49.775z"/>
	<path d="M802.245,51.273c0.031,1.667,1.188,2.354,2.528,2.354c0.959,0,1.538-0.154,2.041-0.351l0.228,0.883
		c-0.472,0.196-1.278,0.42-2.451,0.42c-2.27,0-3.624-1.372-3.624-3.417c0-2.046,1.31-3.656,3.456-3.656
		c2.406,0,3.046,1.947,3.046,3.193c0,0.252-0.03,0.448-0.046,0.574H802.245z M806.175,50.392c0.015-0.785-0.351-2.003-1.858-2.003
		c-1.355,0-1.949,1.148-2.056,2.003H806.175z"/>
	<path d="M813.21,54.439l-0.106-0.854h-0.045c-0.412,0.532-1.203,1.009-2.254,1.009c-1.493,0-2.254-0.967-2.254-1.947
		c0-1.639,1.584-2.535,4.432-2.521v-0.14c0-0.561-0.168-1.569-1.676-1.569c-0.685,0-1.4,0.196-1.919,0.505l-0.304-0.812
		c0.608-0.364,1.492-0.603,2.421-0.603c2.254,0,2.802,1.415,2.802,2.773v2.535c0,0.589,0.03,1.163,0.122,1.625H813.21z
		 M813.013,50.979c-1.462-0.028-3.122,0.21-3.122,1.527c0,0.798,0.579,1.176,1.264,1.176c0.96,0,1.568-0.56,1.782-1.134
		c0.046-0.127,0.076-0.267,0.076-0.393V50.979z"/>
	<path d="M822.835,44.494v8.194c0,0.603,0.015,1.289,0.061,1.751h-1.203l-0.061-1.177h-0.031c-0.411,0.757-1.31,1.331-2.513,1.331
		c-1.781,0-3.151-1.387-3.151-3.446c-0.016-2.255,1.507-3.642,3.304-3.642c1.127,0,1.889,0.49,2.224,1.036h0.03v-4.048H822.835z
		 M821.494,50.419c0-0.153-0.015-0.364-0.061-0.518c-0.198-0.785-0.929-1.429-1.934-1.429c-1.387,0-2.209,1.12-2.209,2.619
		c0,1.373,0.731,2.507,2.178,2.507c0.898,0,1.721-0.546,1.965-1.471c0.046-0.168,0.061-0.336,0.061-0.532V50.419z"/>
</g>
<g>
	<rect x="261" y="246.5" fill="none" width="326" height="19"/>
	<path d="M379.471,254.851c0,3.224-2.232,4.628-4.339,4.628c-2.358,0-4.177-1.729-4.177-4.483c0-2.917,1.909-4.628,4.321-4.628
		C377.779,250.367,379.471,252.187,379.471,254.851z M372.557,254.941c0,1.908,1.098,3.349,2.647,3.349
		c1.512,0,2.646-1.423,2.646-3.385c0-1.477-0.738-3.35-2.61-3.35C373.367,251.556,372.557,253.284,372.557,254.941z"/>
	<path d="M388.759,256.903c0,0.9,0.018,1.692,0.072,2.377h-1.404l-0.09-1.423H387.3c-0.414,0.703-1.332,1.621-2.881,1.621
		c-1.368,0-3.007-0.757-3.007-3.817v-5.096h1.584v4.825c0,1.657,0.504,2.773,1.945,2.773c1.062,0,1.8-0.738,2.088-1.44
		c0.09-0.234,0.144-0.522,0.144-0.811v-5.348h1.584V256.903z"/>
	<path d="M393.293,248.062v2.503h2.269v1.207h-2.269v4.699c0,1.08,0.306,1.692,1.188,1.692c0.414,0,0.72-0.054,0.918-0.108
		l0.072,1.188c-0.306,0.126-0.792,0.216-1.404,0.216c-0.738,0-1.332-0.233-1.71-0.666c-0.45-0.468-0.612-1.242-0.612-2.269v-4.753
		h-1.35v-1.207h1.35v-2.089L393.293,248.062z"/>
	<path d="M398.117,255.211c0.036,2.143,1.404,3.025,2.989,3.025c1.134,0,1.818-0.198,2.413-0.45l0.27,1.134
		c-0.558,0.252-1.512,0.54-2.899,0.54c-2.683,0-4.285-1.765-4.285-4.393c0-2.629,1.549-4.7,4.087-4.7
		c2.845,0,3.601,2.503,3.601,4.105c0,0.324-0.036,0.576-0.054,0.738H398.117z M402.763,254.077c0.018-1.009-0.415-2.575-2.197-2.575
		c-1.603,0-2.305,1.477-2.431,2.575H402.763z"/>
	<path d="M406.253,253.284c0-1.026-0.018-1.908-0.072-2.719h1.387l0.054,1.711h0.072c0.396-1.171,1.351-1.909,2.413-1.909
		c0.18,0,0.306,0.019,0.45,0.055v1.494c-0.162-0.036-0.324-0.054-0.54-0.054c-1.117,0-1.909,0.846-2.125,2.034
		c-0.036,0.216-0.072,0.469-0.072,0.738v4.646h-1.566V253.284z"/>
	<path d="M423.481,246.496v10.533c0,0.774,0.018,1.657,0.072,2.251h-1.422l-0.072-1.513h-0.036
		c-0.486,0.973-1.549,1.711-2.971,1.711c-2.106,0-3.727-1.783-3.727-4.43c-0.018-2.898,1.783-4.682,3.907-4.682
		c1.333,0,2.233,0.631,2.629,1.333h0.036v-5.204H423.481z M421.896,254.112c0-0.197-0.018-0.468-0.072-0.666
		c-0.234-1.008-1.098-1.836-2.287-1.836c-1.639,0-2.611,1.44-2.611,3.366c0,1.765,0.864,3.224,2.575,3.224
		c1.062,0,2.035-0.702,2.323-1.891c0.054-0.216,0.072-0.433,0.072-0.685V254.112z"/>
	<path d="M427.871,248.117c0.018,0.54-0.378,0.972-1.008,0.972c-0.558,0-0.955-0.432-0.955-0.972c0-0.559,0.414-0.99,0.99-0.99
		C427.493,247.127,427.871,247.559,427.871,248.117z M426.106,259.28v-8.715h1.584v8.715H426.106z"/>
	<path d="M430.102,257.66c0.468,0.306,1.296,0.63,2.089,0.63c1.152,0,1.692-0.576,1.692-1.297c0-0.756-0.45-1.17-1.621-1.603
		c-1.566-0.558-2.305-1.422-2.305-2.466c0-1.405,1.135-2.558,3.007-2.558c0.882,0,1.657,0.253,2.143,0.541l-0.396,1.152
		c-0.342-0.217-0.972-0.505-1.782-0.505c-0.937,0-1.458,0.54-1.458,1.188c0,0.721,0.522,1.045,1.656,1.477
		c1.513,0.576,2.287,1.332,2.287,2.629c0,1.53-1.188,2.61-3.259,2.61c-0.954,0-1.836-0.233-2.449-0.594L430.102,257.66z"/>
	<path d="M439.355,248.062v2.503h2.269v1.207h-2.269v4.699c0,1.08,0.306,1.692,1.188,1.692c0.414,0,0.72-0.054,0.918-0.108
		l0.072,1.188c-0.306,0.126-0.792,0.216-1.404,0.216c-0.738,0-1.332-0.233-1.71-0.666c-0.45-0.468-0.612-1.242-0.612-2.269v-4.753
		h-1.35v-1.207h1.35v-2.089L439.355,248.062z"/>
	<path d="M448.229,259.28l-0.126-1.099h-0.054c-0.486,0.685-1.423,1.297-2.665,1.297c-1.765,0-2.665-1.242-2.665-2.503
		c0-2.106,1.873-3.259,5.24-3.241v-0.18c0-0.721-0.198-2.017-1.981-2.017c-0.81,0-1.657,0.252-2.269,0.648l-0.36-1.045
		c0.72-0.468,1.765-0.774,2.863-0.774c2.665,0,3.313,1.819,3.313,3.565v3.259c0,0.757,0.036,1.495,0.144,2.089H448.229z
		 M447.996,254.833c-1.729-0.036-3.691,0.271-3.691,1.963c0,1.026,0.684,1.512,1.494,1.512c1.134,0,1.854-0.72,2.106-1.458
		c0.055-0.162,0.091-0.342,0.091-0.504V254.833z"/>
	<path d="M452.08,252.925c0-0.9-0.018-1.639-0.072-2.359h1.404l0.09,1.44h0.036c0.433-0.828,1.44-1.639,2.881-1.639
		c1.207,0,3.079,0.721,3.079,3.71v5.203h-1.584v-5.023c0-1.404-0.522-2.575-2.017-2.575c-1.045,0-1.854,0.738-2.125,1.621
		c-0.072,0.198-0.108,0.468-0.108,0.738v5.239h-1.584V252.925z"/>
	<path d="M468.282,258.956c-0.414,0.216-1.333,0.504-2.503,0.504c-2.629,0-4.339-1.782-4.339-4.447c0-2.683,1.836-4.627,4.681-4.627
		c0.937,0,1.765,0.234,2.197,0.45l-0.36,1.225c-0.378-0.217-0.973-0.414-1.837-0.414c-1.998,0-3.078,1.476-3.078,3.295
		c0,2.017,1.296,3.259,3.024,3.259c0.9,0,1.494-0.234,1.944-0.433L468.282,258.956z"/>
	<path d="M470.908,255.211c0.036,2.143,1.404,3.025,2.989,3.025c1.135,0,1.818-0.198,2.413-0.45l0.27,1.134
		c-0.558,0.252-1.513,0.54-2.898,0.54c-2.683,0-4.285-1.765-4.285-4.393c0-2.629,1.548-4.7,4.087-4.7
		c2.845,0,3.601,2.503,3.601,4.105c0,0.324-0.035,0.576-0.054,0.738H470.908z M475.554,254.077c0.019-1.009-0.414-2.575-2.196-2.575
		c-1.603,0-2.305,1.477-2.431,2.575H475.554z"/>
</g>
<g>
</g>
<g>
</g>
<g>
</g>
<g>
</g>
<g>
</g>
<g>
</g>
<g>
</g>
<g>
</g>
<g>
</g>
<g>
</g>
<g>
</g>
<g>
</g>
<g>
</g>
<g>
</g>
<g>
</g>
<g>
</g>
</svg>
