<?xml version="1.0" encoding="utf-8"?>
<!-- Generator: Adobe Illustrator 16.0.0, SVG Export Plug-In . SVG Version: 6.00 Build 0)  -->
<!DOCTYPE svg PUBLIC "-//W3C//DTD SVG 1.1//EN" "http://www.w3.org/Graphics/SVG/1.1/DTD/svg11.dtd">
<svg version="1.1" id="Layer_1" xmlns="http://www.w3.org/2000/svg" xmlns:xlink="http://www.w3.org/1999/xlink" x="0px" y="0px"
	 width="974.328px" height="676.242px" viewBox="0 0 974.328 676.242" enable-background="new 0 0 974.328 676.242"
	 xml:space="preserve">
<circle fill="#FFFFFF" stroke="#000000" stroke-width="3" stroke-miterlimit="10" cx="92.979" cy="553.924" r="17.902"/>
<circle fill="#FFFFFF" stroke="#000000" stroke-width="3" stroke-miterlimit="10" cx="92.979" cy="482.294" r="17.903"/>
<circle fill="#FFFFFF" stroke="#000000" stroke-width="3" stroke-miterlimit="10" cx="92.979" cy="518.108" r="17.903"/>
<circle fill="#FFFFFF" stroke="#000000" stroke-width="3" stroke-miterlimit="10" cx="92.979" cy="446.478" r="17.902"/>
<circle fill="#FFFFFF" stroke="#000000" stroke-width="3" stroke-miterlimit="10" cx="92.979" cy="374.847" r="17.902"/>
<circle fill="#FFFFFF" stroke="#000000" stroke-width="3" stroke-miterlimit="10" cx="92.979" cy="410.662" r="17.902"/>
<circle fill="#FFFFFF" stroke="#000000" stroke-width="3" stroke-miterlimit="10" cx="92.979" cy="339.03" r="17.902"/>
<circle fill="#FFFFFF" stroke="#000000" stroke-width="3" stroke-miterlimit="10" cx="92.979" cy="267.4" r="17.902"/>
<circle fill="#FFFFFF" stroke="#000000" stroke-width="3" stroke-miterlimit="10" cx="92.978" cy="303.216" r="17.903"/>
<circle fill="#FFFFFF" stroke="#000000" stroke-width="3" stroke-miterlimit="10" cx="92.979" cy="231.584" r="17.903"/>
<circle fill="#FFFFFF" stroke="#000000" stroke-width="3" stroke-miterlimit="10" cx="92.979" cy="195.769" r="17.903"/>
<circle fill="#FFFFFF" stroke="#000000" stroke-width="3" stroke-miterlimit="10" cx="131.461" cy="269.257" r="17.901"/>
<circle fill="#FFFFFF" stroke="#000000" stroke-width="3" stroke-miterlimit="10" cx="132.127" cy="193.959" r="17.903"/>
<circle fill="#FFFFFF" stroke="#000000" stroke-width="3" stroke-miterlimit="10" cx="131.283" cy="231.975" r="17.903"/>
<g>
	<path fill="#3FA9F5" d="M90.635,542.435h3.572l8.477,23.354h-3.466l-2.437-6.994h-9.165l-2.532,6.996l-3.243-0.002L90.635,542.435z
		 M95.881,556.22l-3.594-10.318l-3.736,10.316L95.881,556.22z"/>
</g>
<g>
	<path fill="#3FA9F5" d="M90.635,363.542h3.571l8.478,23.354l-3.465,0.001l-2.44-6.995h-9.163l-2.531,6.995l-3.245-0.001
		L90.635,363.542z M95.882,377.326l-3.595-10.317l-3.736,10.317H95.882z"/>
</g>
<g>
	<path fill="#3FA9F5" d="M90.635,255.567h3.571l8.476,23.355l-3.466-0.002l-2.438-6.994h-9.163l-2.533,6.994h-3.24L90.635,255.567z
		 M95.88,269.351l-3.595-10.318l-3.738,10.318H95.88z"/>
</g>
<g>
	<path fill="#FF1D25" d="M102.271,470.799v2.783h-7.87v20.572h-3.196v-20.572h-7.869V470.8L102.271,470.799z"/>
</g>
<g>
	<path fill="#FF1D25" d="M102.271,327.157l0,2.782h-7.87v20.572h-3.195l0-20.573l-7.87,0.001l0-2.782H102.271z"/>
</g>
<g>
	<path fill="#FF1D25" d="M140.073,258.613v2.781h-7.869v20.572h-3.197v-20.572l-7.869,0.002v-2.783H140.073z"/>
</g>
<g>
	<path fill="#3FA9F5" d="M129.97,181.537h3.571l8.477,23.354l-3.465,0.002l-2.439-6.996h-9.162l-2.533,6.996h-3.244L129.97,181.537z
		 M135.217,195.322l-3.596-10.318l-3.735,10.316L135.217,195.322z"/>
</g>
<g>
	<path fill="#FF1D25" d="M102.168,183.922l0,2.783h-7.868l0,20.572l-3.196,0.001l-0.001-20.573h-7.869l0-2.783H102.168z"/>
</g>
<g>
	<path fill="#7AC943" d="M99.58,508.79c1.613,1.558,2.508,3.328,2.688,5.31h-3.085c-0.343-1.506-1.027-2.697-2.054-3.577
		c-1.025-0.88-2.465-1.318-4.316-1.319c-2.258,0-4.082,0.809-5.472,2.428c-1.39,1.617-2.085,4.096-2.085,7.438
		c0,2.735,0.627,4.956,1.883,6.658c1.255,1.702,3.126,2.554,5.614,2.554c2.29,0,4.034-0.896,5.231-2.688
		c0.634-0.943,1.109-2.184,1.422-3.719l3.083-0.002c-0.271,2.461-1.173,4.521-2.702,6.186c-1.834,2.004-4.307,3.004-7.418,3.004
		c-2.682,0.001-4.935-0.82-6.758-2.465c-2.398-2.175-3.598-5.531-3.598-10.071c0-3.447,0.9-6.272,2.702-8.478
		c1.948-2.398,4.636-3.597,8.062-3.598C95.699,506.454,97.966,507.232,99.58,508.79z"/>
</g>
<g>
	<path fill="#7AC943" d="M100.122,294.085c1.612,1.559,2.51,3.329,2.686,5.311h-3.081c-0.343-1.504-1.028-2.697-2.054-3.577
		c-1.026-0.879-2.464-1.319-4.316-1.319c-2.259,0-4.084,0.809-5.473,2.427c-1.39,1.616-2.084,4.097-2.084,7.438
		c0,2.736,0.628,4.957,1.883,6.658c1.251,1.703,3.126,2.555,5.614,2.554c2.291,0.001,4.033-0.895,5.232-2.687
		c0.634-0.943,1.109-2.184,1.42-3.721h3.084c-0.271,2.459-1.173,4.521-2.702,6.186c-1.834,2.002-4.305,3.004-7.418,3.004
		c-2.682,0-4.935-0.822-6.757-2.466c-2.4-2.174-3.601-5.531-3.6-10.07c0-3.446,0.903-6.272,2.704-8.479
		c1.949-2.396,4.634-3.596,8.062-3.596C96.24,291.749,98.509,292.527,100.122,294.085z"/>
</g>
<g>
	<path fill="#7AC943" d="M99.58,400.939c1.613,1.559,2.51,3.33,2.688,5.311h-3.085c-0.343-1.505-1.028-2.697-2.053-3.576
		c-1.026-0.88-2.465-1.32-4.317-1.32c-2.259,0-4.083,0.809-5.473,2.428c-1.39,1.617-2.084,4.096-2.084,7.438
		c0,2.738,0.628,4.957,1.882,6.658c1.255,1.705,3.126,2.554,5.614,2.554c2.291,0,4.035-0.895,5.233-2.686
		c0.633-0.944,1.107-2.185,1.42-3.722l3.084,0.001c-0.272,2.46-1.173,4.52-2.704,6.184c-1.833,2.004-4.306,3.004-7.417,3.004
		c-2.683,0-4.936-0.822-6.758-2.465c-2.399-2.174-3.599-5.531-3.598-10.07c0-3.447,0.9-6.273,2.701-8.479
		c1.949-2.397,4.636-3.595,8.062-3.596C95.699,398.603,97.967,399.381,99.58,400.939z"/>
</g>
<g>
	<path fill="#FF931E" d="M136.695,221.185c2.287,1.219,3.688,3.354,4.198,6.406h-3.133c-0.373-1.707-1.146-2.949-2.318-3.727
		c-1.174-0.779-2.651-1.17-4.438-1.17c-2.117,0-3.9,0.812-5.349,2.434c-1.446,1.621-2.171,4.037-2.171,7.25
		c0,2.775,0.596,5.035,1.791,6.779c1.194,1.744,3.143,2.615,5.842,2.615c2.067,0,3.779-0.611,5.135-1.836
		c1.355-1.223,2.05-3.203,2.08-5.938h-7.313l0.001-2.623h10.254v12.496h-2.034l-0.763-3.004c-1.055,1.176-1.986,1.992-2.801,2.447
		c-1.365,0.785-3.102,1.178-5.207,1.176c-2.721,0.002-5.062-0.895-7.021-2.688c-2.137-2.244-3.206-5.33-3.205-9.252
		c0-3.91,1.043-7.021,3.133-9.332c1.984-2.203,4.555-3.307,7.709-3.307C133.247,219.914,135.118,220.337,136.695,221.185z"/>
</g>
<g>
	<path fill="#FF931E" d="M98.75,435.802c2.287,1.219,3.687,3.354,4.198,6.406h-3.132c-0.374-1.707-1.147-2.951-2.319-3.729
		c-1.175-0.779-2.653-1.168-4.438-1.168c-2.117,0-3.9,0.811-5.35,2.432c-1.447,1.621-2.171,4.039-2.172,7.25
		c0,2.777,0.598,5.037,1.793,6.779c1.195,1.744,3.143,2.617,5.843,2.617c2.065,0,3.777-0.613,5.133-1.836
		c1.356-1.225,2.05-3.205,2.081-5.939h-7.312l-0.001-2.623h10.255v12.496h-2.035l-0.763-3.004c-1.053,1.176-1.986,1.992-2.8,2.447
		c-1.365,0.785-3.101,1.178-5.207,1.178c-2.722,0-5.062-0.895-7.022-2.688c-2.138-2.246-3.206-5.332-3.206-9.252
		c0-3.912,1.045-7.023,3.135-9.334c1.985-2.203,4.555-3.305,7.709-3.307C95.301,434.528,97.171,434.952,98.75,435.802z"/>
</g>
<g>
	<path fill="#7AC943" d="M99.579,222.057c1.612,1.558,2.509,3.329,2.688,5.31h-3.083c-0.345-1.506-1.029-2.697-2.052-3.576
		c-1.027-0.88-2.466-1.32-4.319-1.32c-2.258,0-4.08,0.809-5.469,2.428c-1.389,1.617-2.084,4.096-2.084,7.438
		c-0.001,2.736,0.626,4.957,1.881,6.659c1.254,1.703,3.126,2.554,5.614,2.554c2.292,0,4.034-0.896,5.231-2.687
		c0.636-0.944,1.109-2.185,1.422-3.721h3.081c-0.272,2.46-1.17,4.521-2.703,6.185c-1.834,2.004-4.306,3.004-7.417,3.004
		c-2.683,0-4.935-0.821-6.756-2.465c-2.399-2.174-3.599-5.531-3.598-10.07c0-3.447,0.901-6.273,2.703-8.479
		c1.948-2.397,4.633-3.596,8.061-3.596C95.697,219.72,97.966,220.5,99.579,222.057z"/>
</g>
<path fill="#FFFFFF" stroke="#000000" stroke-width="3" stroke-miterlimit="10" d="M175.98,255.916
	c0.001-9.886,8.015-17.902,17.901-17.902c9.888,0,17.903,8.016,17.904,17.902c-0.002,9.888-8.018,17.902-17.904,17.902
	C183.995,273.818,175.981,265.802,175.98,255.916z"/>
<g>
	<path fill="#FF931E" d="M199.652,245.238c2.289,1.219,3.688,3.354,4.2,6.406l-3.133,0.001c-0.373-1.707-1.146-2.95-2.319-3.729
		s-2.651-1.167-4.437-1.167c-2.118,0-3.9,0.809-5.349,2.431c-1.449,1.621-2.173,4.038-2.173,7.249c0,2.777,0.598,5.037,1.792,6.781
		s3.142,2.615,5.841,2.616c2.068-0.001,3.781-0.612,5.134-1.836c1.355-1.225,2.049-3.204,2.083-5.938h-7.313v-2.623h10.255l0,12.496
		h-2.033l-0.762-3.006c-1.057,1.178-1.987,1.994-2.799,2.449c-1.366,0.784-3.103,1.177-5.208,1.178
		c-2.721,0-5.062-0.896-7.022-2.688c-2.138-2.247-3.206-5.332-3.206-9.254c0-3.91,1.045-7.02,3.133-9.332
		c1.985-2.203,4.555-3.307,7.709-3.307C196.206,243.965,198.076,244.39,199.652,245.238z"/>
</g>
<line fill="none" stroke="#000000" stroke-width="2" stroke-miterlimit="10" x1="194.153" y1="238.178" x2="194.153" y2="223.702"/>
<circle fill="#FF931E" stroke="#000000" stroke-width="2" stroke-miterlimit="10" cx="194.126" cy="218.227" r="6.751"/>
<circle fill="#FFFFFF" stroke="#000000" stroke-width="3" stroke-miterlimit="10" cx="224.271" cy="344.911" r="17.903"/>
<g>
	<path fill="#3FA9F5" d="M220.844,332.573h3.572l8.475,23.354l-3.464-0.001l-2.438-6.994h-9.163l-2.532,6.994l-3.245,0.002
		L220.844,332.573z M226.09,346.356l-3.596-10.318l-3.735,10.318H226.09z"/>
</g>
<line fill="none" stroke="#000000" stroke-width="2" stroke-miterlimit="10" x1="207.616" y1="336.884" x2="196.467" y2="327.378"/>
<circle fill="#3FA9F5" stroke="#000000" stroke-width="2" stroke-miterlimit="10" cx="192.412" cy="324.17" r="6.751"/>
<circle fill="#FFFFFF" stroke="#000000" stroke-width="3" stroke-miterlimit="10" cx="235.124" cy="226.612" r="17.903"/>
<g>
	<path fill="#FF1D25" d="M245.373,215.279l0,2.783h-7.871l0,20.573l-3.196-0.001v-20.572h-7.869l0-2.783H245.373z"/>
</g>
<line fill="none" stroke="#000000" stroke-width="2" stroke-miterlimit="10" x1="236.104" y1="245.696" x2="235.865" y2="260.346"/>
<circle fill="#FF1D25" stroke="#000000" stroke-width="2" stroke-miterlimit="10" cx="235.971" cy="263.516" r="6.75"/>
<circle fill="#FFFFFF" stroke="#000000" stroke-width="3" stroke-miterlimit="10" cx="197.494" cy="179.23" r="17.903"/>
<g>
	<path fill="#7AC943" d="M204.28,170.021c1.613,1.559,2.507,3.33,2.687,5.31h-3.082c-0.345-1.505-1.03-2.697-2.054-3.577
		c-1.026-0.879-2.465-1.319-4.316-1.319c-2.26,0-4.083,0.81-5.471,2.427c-1.39,1.617-2.085,4.098-2.085,7.438
		c0,2.738,0.626,4.957,1.881,6.66c1.254,1.703,3.126,2.554,5.614,2.554c2.294,0,4.036-0.896,5.232-2.688
		c0.636-0.941,1.109-2.183,1.422-3.719h3.085c-0.276,2.459-1.175,4.521-2.706,6.184c-1.832,2.004-4.307,3.005-7.416,3.006
		c-2.685,0-4.936-0.822-6.759-2.467c-2.397-2.174-3.598-5.531-3.597-10.069c0-3.447,0.9-6.273,2.702-8.479
		c1.948-2.396,4.637-3.596,8.062-3.596C200.398,167.685,202.667,168.462,204.28,170.021z"/>
</g>
<line fill="none" stroke="#000000" stroke-width="2" stroke-miterlimit="10" x1="214.014" y1="171.743" x2="224.345" y2="161.352"/>
<circle fill="#7AC943" stroke="#000000" stroke-width="2" stroke-miterlimit="10" cx="227.851" cy="157.551" r="6.75"/>
<g>
	<g>
		<path fill="none" stroke="#000000" stroke-width="2" stroke-miterlimit="10" d="M165.094,301.325
			c16.458-2.617,28.787-13.586,28.787-26.744"/>
		<g>
			<path d="M157.518,301.917c3.678,1.007,8.297,2.869,11.246,5.015l-2.685-5.773l1.628-6.153
				C165.18,297.636,160.962,300.282,157.518,301.917z"/>
		</g>
	</g>
</g>
<g>
	<rect x="64.594" y="170.755" fill="none" width="20.079" height="30.93"/>
	<path d="M65.634,179.481c-0.486-0.592-0.729-1.312-0.729-2.159l1.196-0.001c0.051,0.591,0.16,1.018,0.33,1.285
		c0.297,0.48,0.832,0.72,1.609,0.72c0.6,0,1.084-0.162,1.449-0.483c0.363-0.323,0.546-0.739,0.547-1.247
		c0-0.627-0.191-1.065-0.576-1.316c-0.383-0.249-0.918-0.375-1.6-0.375c-0.076,0-0.154,0.001-0.232,0.003
		c-0.078,0.003-0.157,0.007-0.238,0.009v-1.01c0.117,0.014,0.218,0.021,0.299,0.025c0.08,0.006,0.168,0.007,0.26,0.007
		c0.428,0,0.781-0.067,1.057-0.204c0.482-0.237,0.725-0.661,0.725-1.271c0-0.453-0.161-0.803-0.483-1.049s-0.697-0.369-1.126-0.369
		c-0.763,0-1.291,0.255-1.584,0.764c-0.16,0.279-0.252,0.677-0.272,1.195l-1.132-0.001c0-0.679,0.135-1.255,0.406-1.729
		C66.005,171.425,66.826,171,68,171c0.928,0,1.646,0.207,2.156,0.621c0.508,0.413,0.764,1.012,0.764,1.797
		c-0.001,0.559-0.15,1.014-0.452,1.359c-0.187,0.218-0.429,0.388-0.726,0.51c0.479,0.133,0.854,0.386,1.123,0.76
		c0.27,0.376,0.404,0.835,0.404,1.377c0,0.87-0.287,1.578-0.858,2.125c-0.572,0.549-1.384,0.82-2.436,0.82
		C66.901,180.367,66.119,180.072,65.634,179.481z"/>
	<path d="M72.917,173.493c0.236-0.038,0.414-0.169,0.537-0.394c0.121-0.225,0.182-0.483,0.184-0.775
		c0-0.029-0.002-0.055-0.004-0.079c-0.002-0.022-0.008-0.05-0.016-0.079h-0.7l-0.001-1.386l1.36-0.001v1.279
		c0.001,0.541-0.112,1.004-0.335,1.382c-0.227,0.381-0.566,0.597-1.025,0.651V173.493z"/>
</g>
<g>
	<rect x="67.42" y="570.952" fill="none" width="20.078" height="30.931"/>
	<path d="M69.027,577.995c0.078,0.653,0.38,1.104,0.909,1.354c0.273,0.127,0.586,0.191,0.94,0.191c0.678,0,1.18-0.217,1.509-0.648
		c0.326-0.434,0.487-0.912,0.486-1.438c0-0.637-0.194-1.129-0.582-1.476c-0.387-0.347-0.853-0.522-1.396-0.522
		c-0.394,0-0.733,0.076-1.015,0.229c-0.283,0.151-0.522,0.364-0.721,0.636l-0.992-0.057l0.693-4.904h4.733v1.106l-3.873-0.001
		l-0.388,2.532c0.212-0.161,0.413-0.282,0.604-0.362c0.339-0.141,0.731-0.21,1.176-0.21c0.835,0,1.543,0.27,2.124,0.808
		c0.582,0.538,0.873,1.221,0.872,2.047c0.001,0.861-0.266,1.62-0.799,2.277c-0.532,0.657-1.38,0.986-2.547,0.986
		c-0.744,0-1.399-0.209-1.967-0.627c-0.571-0.418-0.89-1.059-0.958-1.924L69.027,577.995L69.027,577.995z"/>
	<path d="M75.744,573.689c0.236-0.038,0.412-0.17,0.535-0.395c0.123-0.224,0.184-0.482,0.184-0.775c0-0.028-0.002-0.057-0.003-0.079
		c-0.002-0.022-0.008-0.05-0.015-0.079h-0.698l0-1.386l1.362-0.001v1.279c0,0.543-0.115,1.004-0.338,1.383
		c-0.223,0.381-0.565,0.596-1.024,0.652L75.744,573.689L75.744,573.689z"/>
</g>
<g>
	<rect x="152.516" y="285.54" fill="none" width="20.076" height="30.932"/>
	<path d="M153.554,294.264c-0.485-0.592-0.728-1.312-0.728-2.16l1.195,0.002c0.051,0.59,0.161,1.016,0.328,1.283
		c0.299,0.479,0.834,0.719,1.611,0.719c0.602,0,1.085-0.16,1.45-0.484c0.364-0.322,0.547-0.736,0.547-1.246
		c-0.001-0.627-0.192-1.064-0.575-1.316c-0.383-0.25-0.917-0.375-1.6-0.375c-0.076-0.002-0.153,0.002-0.232,0.004
		c-0.078,0.002-0.158,0.004-0.238,0.01v-1.01c0.117,0.012,0.22,0.02,0.299,0.023c0.08,0.006,0.17,0.008,0.261,0.008
		c0.43,0,0.78-0.068,1.058-0.203c0.482-0.238,0.724-0.662,0.725-1.271c-0.001-0.455-0.162-0.803-0.484-1.049
		c-0.324-0.248-0.697-0.369-1.125-0.369c-0.766-0.002-1.293,0.254-1.586,0.764c-0.162,0.277-0.251,0.678-0.273,1.195h-1.133
		c0-0.68,0.136-1.256,0.407-1.73c0.466-0.85,1.287-1.271,2.46-1.273c0.931,0.002,1.648,0.209,2.157,0.621
		c0.511,0.412,0.763,1.012,0.764,1.795c-0.001,0.561-0.149,1.014-0.453,1.361c-0.186,0.217-0.428,0.385-0.724,0.51
		c0.479,0.131,0.853,0.385,1.121,0.76c0.271,0.375,0.406,0.834,0.406,1.377c0,0.869-0.287,1.578-0.858,2.125
		c-0.572,0.547-1.384,0.82-2.435,0.82C154.82,295.151,154.039,294.856,153.554,294.264z"/>
	<path d="M160.838,288.276c0.236-0.039,0.414-0.17,0.537-0.393c0.123-0.225,0.183-0.484,0.183-0.775c0-0.031-0.001-0.057-0.003-0.08
		s-0.008-0.049-0.015-0.08h-0.699l-0.001-1.387l1.36,0.002l0.001,1.277c0,0.541-0.113,1.004-0.336,1.383
		c-0.224,0.381-0.566,0.596-1.023,0.65L160.838,288.276L160.838,288.276z"/>
</g>
<g>
	<rect x="155.209" y="170.497" fill="none" width="20.078" height="30.93"/>
	<path d="M156.817,177.539c0.076,0.65,0.382,1.105,0.91,1.354c0.271,0.127,0.586,0.191,0.941,0.191c0.679,0,1.181-0.217,1.508-0.646
		c0.328-0.432,0.49-0.912,0.49-1.438c-0.001-0.637-0.195-1.129-0.584-1.477c-0.387-0.348-0.852-0.521-1.395-0.521
		c-0.395,0-0.732,0.078-1.014,0.229c-0.282,0.152-0.523,0.365-0.723,0.637l-0.99-0.057l0.694-4.902h4.729v1.105h-3.871l-0.389,2.531
		c0.213-0.162,0.414-0.279,0.605-0.363c0.339-0.139,0.73-0.209,1.176-0.209c0.836,0,1.544,0.27,2.123,0.809
		c0.582,0.537,0.871,1.219,0.871,2.047c0,0.859-0.266,1.619-0.798,2.277c-0.533,0.656-1.38,0.984-2.548,0.984
		c-0.741,0-1.396-0.209-1.968-0.627c-0.57-0.416-0.889-1.059-0.957-1.924H156.817L156.817,177.539z"/>
	<path d="M163.534,173.232c0.235-0.037,0.414-0.168,0.537-0.393c0.12-0.223,0.183-0.484,0.184-0.775
		c-0.001-0.029-0.002-0.057-0.004-0.078c-0.004-0.023-0.008-0.051-0.016-0.08h-0.699v-1.389l1.361,0.002v1.277
		c0,0.543-0.111,1.004-0.338,1.383c-0.223,0.381-0.564,0.598-1.023,0.652v-0.598L163.534,173.232L163.534,173.232z"/>
</g>
<circle fill="#FFFFFF" stroke="#000000" stroke-width="3" stroke-miterlimit="10" cx="404.385" cy="552.972" r="17.902"/>
<circle fill="#FFFFFF" stroke="#000000" stroke-width="3" stroke-miterlimit="10" cx="404.384" cy="481.342" r="17.903"/>
<circle fill="#FFFFFF" stroke="#000000" stroke-width="3" stroke-miterlimit="10" cx="404.384" cy="517.156" r="17.903"/>
<circle fill="#FFFFFF" stroke="#000000" stroke-width="3" stroke-miterlimit="10" cx="404.385" cy="445.525" r="17.902"/>
<circle fill="#FFFFFF" stroke="#000000" stroke-width="3" stroke-miterlimit="10" cx="404.385" cy="373.894" r="17.902"/>
<circle fill="#FFFFFF" stroke="#000000" stroke-width="3" stroke-miterlimit="10" cx="404.384" cy="409.709" r="17.902"/>
<circle fill="#FFFFFF" stroke="#000000" stroke-width="3" stroke-miterlimit="10" cx="404.385" cy="338.078" r="17.902"/>
<circle fill="#FFFFFF" stroke="#000000" stroke-width="3" stroke-miterlimit="10" cx="404.385" cy="266.447" r="17.902"/>
<circle fill="#FFFFFF" stroke="#000000" stroke-width="3" stroke-miterlimit="10" cx="404.384" cy="302.263" r="17.903"/>
<circle fill="#FFFFFF" stroke="#000000" stroke-width="3" stroke-miterlimit="10" cx="404.384" cy="230.632" r="17.903"/>
<circle fill="#FFFFFF" stroke="#000000" stroke-width="3" stroke-miterlimit="10" cx="404.384" cy="194.816" r="17.903"/>
<g>
	<path fill="#3FA9F5" d="M402.041,541.482h3.572l8.477,23.354h-3.466l-2.437-6.994h-9.165l-2.532,6.996l-3.243-0.002
		L402.041,541.482z M407.287,555.268l-3.594-10.318l-3.736,10.316L407.287,555.268z"/>
</g>
<g>
	<path fill="#3FA9F5" d="M402.041,362.59h3.571l8.478,23.354l-3.465,0.001l-2.44-6.995h-9.163l-2.531,6.995l-3.245-0.001
		L402.041,362.59z M407.288,376.373l-3.595-10.317l-3.736,10.317H407.288z"/>
</g>
<g>
	<path fill="#3FA9F5" d="M402.041,254.615h3.571l8.476,23.355l-3.466-0.002l-2.438-6.994h-9.163l-2.533,6.994h-3.24L402.041,254.615
		z M407.286,268.398l-3.595-10.318l-3.738,10.318H407.286z"/>
</g>
<g>
	<path fill="#FF1D25" d="M413.677,469.846v2.783h-7.87v20.572h-3.196v-20.572h-7.869v-2.781L413.677,469.846z"/>
</g>
<g>
	<path fill="#FF1D25" d="M413.677,326.204l0,2.782h-7.87v20.572h-3.195l0-20.573l-7.87,0.001l0-2.782H413.677z"/>
</g>
<g>
	<path fill="#FF1D25" d="M413.574,182.97l0,2.783h-7.868l0,20.572l-3.196,0.001l-0.001-20.573h-7.869l0-2.783H413.574z"/>
</g>
<g>
	<path fill="#7AC943" d="M410.985,507.838c1.613,1.557,2.508,3.328,2.688,5.309h-3.085c-0.343-1.506-1.027-2.697-2.054-3.576
		c-1.025-0.881-2.465-1.318-4.316-1.32c-2.258,0-4.082,0.809-5.472,2.428c-1.39,1.617-2.085,4.096-2.085,7.439
		c0,2.734,0.627,4.955,1.883,6.658c1.255,1.701,3.126,2.553,5.614,2.553c2.29,0,4.034-0.896,5.231-2.688
		c0.634-0.943,1.109-2.184,1.422-3.719l3.083-0.002c-0.271,2.461-1.173,4.521-2.702,6.186c-1.834,2.004-4.307,3.004-7.418,3.004
		c-2.682,0.002-4.935-0.82-6.758-2.465c-2.398-2.174-3.598-5.531-3.598-10.07c0-3.447,0.9-6.273,2.702-8.479
		c1.948-2.398,4.636-3.596,8.062-3.598C407.104,505.502,409.372,506.279,410.985,507.838z"/>
</g>
<g>
	<path fill="#7AC943" d="M411.528,293.132c1.612,1.559,2.51,3.329,2.686,5.311h-3.081c-0.343-1.504-1.028-2.697-2.054-3.577
		c-1.026-0.879-2.464-1.319-4.316-1.319c-2.259,0-4.084,0.809-5.473,2.427c-1.39,1.616-2.084,4.097-2.084,7.438
		c0,2.736,0.628,4.957,1.883,6.658c1.251,1.703,3.126,2.555,5.614,2.554c2.291,0.001,4.033-0.895,5.232-2.687
		c0.634-0.943,1.109-2.184,1.42-3.721h3.084c-0.271,2.459-1.173,4.521-2.702,6.186c-1.834,2.002-4.305,3.004-7.418,3.004
		c-2.682,0-4.935-0.822-6.757-2.466c-2.4-2.174-3.601-5.531-3.6-10.07c0-3.446,0.903-6.272,2.704-8.479
		c1.949-2.396,4.634-3.596,8.062-3.596C407.646,290.796,409.915,291.575,411.528,293.132z"/>
</g>
<g>
	<path fill="#7AC943" d="M410.985,399.986c1.613,1.559,2.51,3.33,2.688,5.311h-3.085c-0.343-1.504-1.028-2.697-2.053-3.576
		c-1.026-0.879-2.465-1.32-4.317-1.32c-2.259,0-4.083,0.809-5.473,2.428c-1.39,1.617-2.084,4.096-2.084,7.438
		c0,2.738,0.628,4.957,1.882,6.658c1.255,1.705,3.126,2.555,5.614,2.555c2.291,0,4.035-0.895,5.233-2.686
		c0.633-0.945,1.107-2.186,1.42-3.723l3.084,0.002c-0.272,2.459-1.173,4.52-2.704,6.184c-1.833,2.004-4.306,3.004-7.417,3.004
		c-2.683,0-4.936-0.822-6.758-2.465c-2.399-2.174-3.599-5.532-3.598-10.071c0-3.447,0.9-6.273,2.701-8.479
		c1.949-2.398,4.636-3.596,8.062-3.596C407.104,397.65,409.373,398.429,410.985,399.986z"/>
</g>
<g>
	<path fill="#FF931E" d="M410.155,434.85c2.287,1.219,3.687,3.354,4.198,6.406h-3.132c-0.374-1.707-1.147-2.951-2.319-3.729
		c-1.175-0.779-2.653-1.168-4.438-1.168c-2.117,0-3.9,0.811-5.35,2.432c-1.447,1.621-2.171,4.039-2.172,7.25
		c0,2.777,0.598,5.037,1.793,6.779c1.195,1.744,3.143,2.617,5.843,2.617c2.065,0,3.777-0.613,5.133-1.836
		c1.356-1.225,2.05-3.205,2.081-5.939h-7.312l-0.001-2.623h10.255v12.496h-2.035l-0.763-3.004c-1.053,1.176-1.986,1.992-2.8,2.447
		c-1.365,0.785-3.101,1.178-5.207,1.178c-2.722,0-5.062-0.895-7.022-2.688c-2.138-2.246-3.206-5.332-3.206-9.252
		c0-3.912,1.045-7.023,3.135-9.334c1.985-2.203,4.555-3.305,7.709-3.307C406.707,433.576,408.577,434,410.155,434.85z"/>
</g>
<g>
	<path fill="#7AC943" d="M410.985,221.104c1.612,1.558,2.509,3.329,2.688,5.31h-3.083c-0.345-1.506-1.029-2.697-2.052-3.576
		c-1.027-0.88-2.466-1.32-4.319-1.32c-2.258,0-4.08,0.809-5.469,2.428c-1.389,1.617-2.084,4.096-2.084,7.438
		c-0.001,2.736,0.626,4.957,1.881,6.659c1.254,1.703,3.126,2.554,5.614,2.554c2.292,0,4.034-0.896,5.231-2.687
		c0.636-0.944,1.109-2.185,1.422-3.721h3.081c-0.272,2.46-1.17,4.521-2.703,6.185c-1.834,2.004-4.306,3.004-7.417,3.004
		c-2.683,0-4.935-0.821-6.756-2.465c-2.399-2.174-3.599-5.531-3.598-10.07c0-3.447,0.901-6.273,2.703-8.479
		c1.948-2.397,4.633-3.596,8.061-3.596C407.103,218.768,409.372,219.547,410.985,221.104z"/>
</g>
<line fill="none" stroke="#000000" stroke-width="2" stroke-miterlimit="10" x1="440.751" y1="323.59" x2="440.751" y2="338.067"/>
<circle fill="#FF931E" stroke="#000000" stroke-width="2" stroke-miterlimit="10" cx="440.777" cy="343.541" r="6.751"/>
<circle fill="#FFFFFF" stroke="#000000" stroke-width="3" stroke-miterlimit="10" cx="518.104" cy="404.082" r="17.903"/>
<g>
	<path fill="#3FA9F5" d="M514.677,391.744h3.572l8.475,23.354h-3.464l-2.438-6.994h-9.163l-2.532,6.994l-3.245,0.002
		L514.677,391.744z M519.923,405.527l-3.596-10.318l-3.735,10.318H519.923z"/>
</g>
<line fill="none" stroke="#000000" stroke-width="2" stroke-miterlimit="10" x1="501.448" y1="396.055" x2="490.3" y2="386.549"/>
<circle fill="#3FA9F5" stroke="#000000" stroke-width="2" stroke-miterlimit="10" cx="486.244" cy="383.341" r="6.751"/>
<circle fill="#FFFFFF" stroke="#000000" stroke-width="3" stroke-miterlimit="10" cx="529.196" cy="336.993" r="17.903"/>
<g>
	<path fill="#FF1D25" d="M539.444,325.66l0.001,2.783h-7.871v20.573l-3.195-0.001v-20.572h-7.869v-2.783H539.444z"/>
</g>
<line fill="none" stroke="#000000" stroke-width="2" stroke-miterlimit="10" x1="530.176" y1="354.078" x2="529.938" y2="368.727"/>
<circle fill="#FF1D25" stroke="#000000" stroke-width="2" stroke-miterlimit="10" cx="530.043" cy="373.897" r="6.75"/>
<circle fill="#FFFFFF" stroke="#000000" stroke-width="3" stroke-miterlimit="10" cx="487.817" cy="296.058" r="17.904"/>
<g>
	<path fill="#7AC943" d="M494.603,286.848c1.612,1.559,2.506,3.33,2.686,5.31h-3.083c-0.345-1.505-1.029-2.697-2.054-3.577
		c-1.026-0.879-2.466-1.319-4.315-1.319c-2.26,0-4.083,0.81-5.472,2.427c-1.39,1.617-2.085,4.098-2.085,7.438
		c0,2.738,0.626,4.957,1.881,6.66c1.254,1.703,3.127,2.554,5.613,2.554c2.295,0,4.036-0.896,5.232-2.688
		c0.636-0.941,1.109-2.183,1.422-3.719h3.084c-0.275,2.459-1.174,4.521-2.706,6.184c-1.832,2.004-4.307,3.005-7.415,3.006
		c-2.685,0-4.936-0.822-6.759-2.467c-2.397-2.174-3.598-5.531-3.598-10.069c0-3.447,0.9-6.273,2.702-8.479
		c1.948-2.396,4.637-3.596,8.062-3.596C490.721,284.512,492.99,285.29,494.603,286.848z"/>
</g>
<line fill="none" stroke="#000000" stroke-width="2" stroke-miterlimit="10" x1="504.336" y1="288.57" x2="514.668" y2="278.179"/>
<circle fill="#7AC943" stroke="#000000" stroke-width="2" stroke-miterlimit="10" cx="518.174" cy="274.379" r="6.75"/>
<g>
	<rect x="379.451" y="570.873" fill="none" width="20.079" height="30.93"/>
	<path d="M380.491,579.598c-0.486-0.592-0.729-1.311-0.729-2.158l1.196-0.002c0.051,0.592,0.16,1.018,0.33,1.285
		c0.297,0.48,0.832,0.721,1.609,0.721c0.6,0,1.084-0.162,1.449-0.484c0.363-0.322,0.546-0.738,0.547-1.246
		c0-0.627-0.191-1.066-0.576-1.316c-0.383-0.25-0.918-0.375-1.6-0.375c-0.076,0-0.154,0-0.232,0.002
		c-0.078,0.004-0.157,0.008-0.238,0.01v-1.01c0.117,0.014,0.218,0.021,0.299,0.025c0.08,0.006,0.168,0.006,0.26,0.006
		c0.428,0,0.781-0.066,1.057-0.203c0.482-0.238,0.725-0.662,0.725-1.271c0-0.453-0.161-0.803-0.483-1.049s-0.697-0.369-1.126-0.369
		c-0.763,0-1.291,0.254-1.584,0.764c-0.16,0.279-0.252,0.676-0.272,1.195l-1.132-0.002c0-0.678,0.135-1.254,0.406-1.729
		c0.467-0.848,1.287-1.273,2.461-1.273c0.928,0,1.646,0.207,2.156,0.621c0.508,0.412,0.764,1.012,0.764,1.797
		c-0.001,0.559-0.15,1.014-0.452,1.359c-0.187,0.217-0.429,0.387-0.726,0.51c0.479,0.133,0.854,0.385,1.123,0.76
		s0.404,0.834,0.404,1.377c0,0.869-0.287,1.578-0.858,2.125c-0.572,0.549-1.384,0.82-2.436,0.82
		C381.758,580.484,380.976,580.189,380.491,579.598z"/>
	<path d="M387.774,573.609c0.236-0.037,0.414-0.168,0.537-0.393c0.121-0.225,0.182-0.484,0.184-0.775
		c0-0.029-0.002-0.055-0.004-0.08c-0.002-0.021-0.008-0.049-0.016-0.078h-0.7l-0.001-1.387h1.36v1.279
		c0.001,0.541-0.112,1.004-0.335,1.381c-0.227,0.381-0.566,0.598-1.025,0.652V573.609z"/>
</g>
<g>
	<rect x="376.441" y="172.185" fill="none" width="20.078" height="30.931"/>
	<path d="M378.048,179.228c0.078,0.653,0.38,1.104,0.909,1.354c0.273,0.127,0.586,0.191,0.94,0.191c0.678,0,1.18-0.217,1.509-0.648
		c0.326-0.434,0.487-0.912,0.486-1.438c0-0.637-0.194-1.129-0.582-1.476c-0.387-0.347-0.853-0.522-1.396-0.522
		c-0.394,0-0.733,0.076-1.015,0.229c-0.283,0.151-0.522,0.364-0.721,0.636l-0.992-0.057l0.693-4.904h4.733v1.106l-3.873-0.001
		l-0.388,2.532c0.212-0.161,0.413-0.282,0.604-0.362c0.339-0.141,0.731-0.21,1.176-0.21c0.835,0,1.543,0.27,2.124,0.808
		c0.582,0.538,0.873,1.221,0.872,2.047c0.001,0.861-0.266,1.62-0.799,2.277c-0.532,0.657-1.38,0.986-2.547,0.986
		c-0.744,0-1.399-0.209-1.967-0.627c-0.571-0.418-0.89-1.059-0.958-1.924L378.048,179.228L378.048,179.228z"/>
	<path d="M384.765,174.922c0.236-0.038,0.412-0.17,0.535-0.395c0.123-0.224,0.184-0.482,0.184-0.775
		c0-0.028-0.002-0.057-0.003-0.079c-0.002-0.022-0.008-0.05-0.015-0.079h-0.698l0-1.386l1.362-0.001v1.279
		c0,0.543-0.115,1.004-0.338,1.383c-0.223,0.381-0.565,0.596-1.024,0.652L384.765,174.922L384.765,174.922z"/>
</g>
<g>
	<rect x="465.403" y="173.179" fill="none" width="20.076" height="30.932"/>
	<path d="M466.441,181.904c-0.485-0.592-0.728-1.312-0.728-2.16l1.195,0.002c0.051,0.59,0.161,1.016,0.328,1.283
		c0.299,0.479,0.834,0.719,1.611,0.719c0.602,0,1.085-0.16,1.45-0.484c0.364-0.322,0.547-0.736,0.547-1.246
		c-0.001-0.627-0.192-1.064-0.575-1.316c-0.383-0.25-0.917-0.375-1.6-0.375c-0.076-0.002-0.153,0.002-0.232,0.004
		c-0.078,0.002-0.158,0.004-0.238,0.01v-1.01c0.117,0.012,0.22,0.02,0.299,0.023c0.08,0.006,0.17,0.008,0.261,0.008
		c0.43,0,0.78-0.068,1.058-0.203c0.482-0.238,0.724-0.662,0.725-1.271c-0.001-0.455-0.162-0.803-0.484-1.049
		c-0.324-0.248-0.697-0.369-1.125-0.369c-0.766-0.002-1.293,0.254-1.586,0.764c-0.162,0.277-0.251,0.678-0.273,1.195h-1.133
		c0-0.68,0.136-1.256,0.407-1.73c0.466-0.85,1.287-1.271,2.46-1.273c0.931,0.002,1.648,0.209,2.157,0.621
		c0.511,0.412,0.763,1.012,0.764,1.795c-0.001,0.561-0.149,1.014-0.453,1.361c-0.186,0.217-0.428,0.385-0.724,0.51
		c0.479,0.131,0.853,0.385,1.121,0.76c0.271,0.375,0.406,0.834,0.406,1.377c0,0.869-0.287,1.578-0.858,2.125
		c-0.572,0.547-1.384,0.82-2.435,0.82C467.708,182.791,466.926,182.496,466.441,181.904z"/>
	<path d="M473.725,175.916c0.236-0.039,0.414-0.17,0.537-0.393c0.123-0.225,0.183-0.484,0.183-0.775c0-0.031-0.001-0.057-0.003-0.08
		s-0.008-0.049-0.015-0.08h-0.699l-0.001-1.387l1.36,0.002l0.001,1.277c0,0.541-0.113,1.004-0.336,1.383
		c-0.224,0.381-0.566,0.596-1.023,0.65L473.725,175.916L473.725,175.916z"/>
</g>
<g>
	<rect x="462.464" y="328.633" fill="none" width="20.078" height="30.93"/>
	<path d="M464.071,335.675c0.076,0.65,0.382,1.105,0.91,1.354c0.271,0.127,0.586,0.191,0.941,0.191c0.679,0,1.181-0.217,1.508-0.646
		c0.328-0.432,0.49-0.912,0.49-1.438c-0.001-0.637-0.195-1.129-0.584-1.477c-0.387-0.348-0.852-0.521-1.395-0.521
		c-0.395,0-0.732,0.078-1.014,0.229c-0.282,0.152-0.523,0.365-0.723,0.637l-0.99-0.057l0.694-4.902h4.729v1.105h-3.871l-0.389,2.531
		c0.213-0.162,0.414-0.279,0.605-0.363c0.339-0.139,0.73-0.209,1.176-0.209c0.836,0,1.544,0.27,2.123,0.809
		c0.582,0.537,0.871,1.219,0.871,2.047c0,0.859-0.266,1.619-0.797,2.277c-0.533,0.656-1.38,0.984-2.548,0.984
		c-0.741,0-1.396-0.209-1.968-0.627c-0.57-0.416-0.889-1.059-0.957-1.924H464.071L464.071,335.675z"/>
	<path d="M470.788,331.368c0.236-0.037,0.414-0.168,0.537-0.393c0.121-0.223,0.184-0.484,0.184-0.775
		c0-0.029-0.002-0.057-0.004-0.078c-0.004-0.023-0.008-0.051-0.016-0.08h-0.699v-1.389l1.361,0.002v1.277
		c0,0.543-0.111,1.004-0.338,1.383c-0.223,0.381-0.564,0.598-1.023,0.652v-0.598L470.788,331.368L470.788,331.368z"/>
</g>
<g>
	<g>
		<line fill="none" stroke="#000000" stroke-width="4" stroke-miterlimit="10" x1="267.328" y1="399" x2="326.328" y2="399"/>
		<g>
			<path d="M350.897,399.43c-11.359,4.215-25.453,11.406-34.189,19.023l6.881-19.023l-6.881-19.02
				C325.444,388.028,339.538,395.219,350.897,399.43z"/>
		</g>
	</g>
</g>
<g>
	<g>
		<line fill="none" stroke="#000000" stroke-width="4" stroke-miterlimit="10" x1="579.328" y1="399" x2="638.328" y2="399"/>
		<g>
			<path d="M662.897,399.43c-11.359,4.215-25.453,11.406-34.189,19.023l6.881-19.023l-6.881-19.02
				C637.444,388.028,651.538,395.219,662.897,399.43z"/>
		</g>
	</g>
</g>
<circle fill="#FFFFFF" stroke="#000000" stroke-width="3" stroke-miterlimit="10" cx="732.385" cy="551.972" r="17.902"/>
<circle fill="#FFFFFF" stroke="#000000" stroke-width="3" stroke-miterlimit="10" cx="732.384" cy="480.342" r="17.903"/>
<circle fill="#FFFFFF" stroke="#000000" stroke-width="3" stroke-miterlimit="10" cx="732.384" cy="516.156" r="17.903"/>
<circle fill="#FFFFFF" stroke="#000000" stroke-width="3" stroke-miterlimit="10" cx="732.385" cy="444.525" r="17.902"/>
<circle fill="#FFFFFF" stroke="#000000" stroke-width="3" stroke-miterlimit="10" cx="732.385" cy="372.894" r="17.902"/>
<circle fill="#FFFFFF" stroke="#000000" stroke-width="3" stroke-miterlimit="10" cx="732.384" cy="408.71" r="17.902"/>
<circle fill="#FFFFFF" stroke="#000000" stroke-width="3" stroke-miterlimit="10" cx="732.385" cy="337.078" r="17.902"/>
<circle fill="#FFFFFF" stroke="#000000" stroke-width="3" stroke-miterlimit="10" cx="732.385" cy="265.447" r="17.902"/>
<circle fill="#FFFFFF" stroke="#000000" stroke-width="3" stroke-miterlimit="10" cx="732.384" cy="301.263" r="17.903"/>
<circle fill="#FFFFFF" stroke="#000000" stroke-width="3" stroke-miterlimit="10" cx="732.384" cy="229.632" r="17.903"/>
<circle fill="#FFFFFF" stroke="#000000" stroke-width="3" stroke-miterlimit="10" cx="732.384" cy="193.816" r="17.903"/>
<circle fill="#FFFFFF" stroke="#000000" stroke-width="3" stroke-miterlimit="10" cx="769.534" cy="191.673" r="17.903"/>
<circle fill="#FFFFFF" stroke="#000000" stroke-width="3" stroke-miterlimit="10" cx="769.616" cy="228.604" r="17.903"/>
<g>
	<path fill="#3FA9F5" d="M730.041,540.482h3.572l8.477,23.354h-3.466l-2.437-6.994h-9.165l-2.532,6.996l-3.243-0.002
		L730.041,540.482z M735.287,554.268l-3.594-10.318l-3.736,10.316L735.287,554.268z"/>
</g>
<g>
	<path fill="#3FA9F5" d="M730.041,361.59h3.571l8.478,23.354l-3.465,0.001l-2.44-6.995h-9.163l-2.531,6.995l-3.244-0.001
		L730.041,361.59z M735.288,375.373l-3.595-10.317l-3.736,10.317H735.288z"/>
</g>
<g>
	<path fill="#3FA9F5" d="M730.041,253.615h3.57l8.477,23.355l-3.466-0.002l-2.438-6.994h-9.162l-2.533,6.994h-3.24L730.041,253.615z
		 M735.285,267.398l-3.595-10.318l-3.738,10.318H735.285z"/>
</g>
<g>
	<path fill="#FF1D25" d="M741.677,468.846v2.783h-7.87v20.572h-3.196v-20.572h-7.869v-2.781L741.677,468.846z"/>
</g>
<g>
	<path fill="#FF1D25" d="M741.678,325.204l-0.001,2.782h-7.87v20.572h-3.194l-0.001-20.573l-7.869,0.001v-2.782H741.678z"/>
</g>
<g>
	<path fill="#3FA9F5" d="M767.376,179.251h3.571l8.477,23.354l-3.465,0.002l-2.439-6.996h-9.162l-2.533,6.996h-3.244
		L767.376,179.251z M772.623,193.036l-3.596-10.318l-3.735,10.316L772.623,193.036z"/>
</g>
<g>
	<path fill="#FF1D25" d="M741.574,181.97v2.783h-7.867l-0.001,20.572l-3.196,0.001v-20.573h-7.869l-0.001-2.783H741.574z"/>
</g>
<g>
	<path fill="#7AC943" d="M738.985,506.838c1.613,1.557,2.508,3.328,2.688,5.309h-3.085c-0.343-1.506-1.027-2.697-2.054-3.576
		c-1.025-0.881-2.465-1.318-4.316-1.32c-2.258,0-4.082,0.809-5.472,2.428c-1.39,1.617-2.085,4.096-2.085,7.439
		c0,2.734,0.627,4.955,1.883,6.658c1.255,1.701,3.126,2.553,5.614,2.553c2.29,0,4.034-0.896,5.231-2.688
		c0.634-0.943,1.109-2.184,1.422-3.719l3.083-0.002c-0.271,2.461-1.173,4.521-2.702,6.186c-1.834,2.004-4.307,3.004-7.418,3.004
		c-2.682,0.002-4.935-0.82-6.758-2.465c-2.398-2.174-3.598-5.531-3.598-10.07c0-3.447,0.9-6.273,2.702-8.479
		c1.948-2.398,4.636-3.596,8.062-3.598C735.104,504.502,737.372,505.279,738.985,506.838z"/>
</g>
<g>
	<path fill="#7AC943" d="M739.527,292.132c1.613,1.559,2.51,3.329,2.686,5.311h-3.08c-0.344-1.504-1.028-2.697-2.055-3.577
		c-1.025-0.879-2.464-1.319-4.315-1.319c-2.259,0-4.084,0.809-5.474,2.427c-1.39,1.616-2.084,4.097-2.084,7.438
		c0,2.736,0.629,4.957,1.883,6.658c1.252,1.703,3.126,2.555,5.613,2.554c2.291,0.001,4.033-0.895,5.232-2.687
		c0.635-0.943,1.109-2.184,1.421-3.721h3.084c-0.271,2.459-1.173,4.521-2.702,6.186c-1.834,2.002-4.305,3.004-7.418,3.004
		c-2.682,0-4.935-0.822-6.756-2.466c-2.4-2.174-3.602-5.531-3.6-10.07c-0.001-3.446,0.902-6.272,2.703-8.479
		c1.949-2.396,4.635-3.596,8.062-3.596C735.646,289.796,737.914,290.575,739.527,292.132z"/>
</g>
<g>
	<path fill="#7AC943" d="M738.985,398.986c1.612,1.559,2.51,3.33,2.688,5.311h-3.085c-0.343-1.504-1.028-2.697-2.053-3.576
		c-1.026-0.879-2.465-1.32-4.317-1.32c-2.26,0-4.084,0.809-5.473,2.428c-1.39,1.617-2.084,4.096-2.084,7.438
		c0,2.738,0.628,4.957,1.882,6.658c1.255,1.705,3.126,2.555,5.614,2.555c2.291,0,4.035-0.895,5.232-2.686
		c0.634-0.945,1.107-2.186,1.421-3.723l3.085,0.002c-0.273,2.459-1.174,4.52-2.704,6.184c-1.833,2.004-4.306,3.004-7.417,3.004
		c-2.683,0-4.936-0.822-6.758-2.465c-2.399-2.174-3.599-5.531-3.598-10.07c0-3.448,0.9-6.274,2.701-8.479
		c1.949-2.398,4.636-3.596,8.062-3.596C735.104,396.65,737.373,397.429,738.985,398.986z"/>
</g>
<g>
	<path fill="#FF931E" d="M775.028,217.815c2.287,1.219,3.688,3.354,4.198,6.406h-3.133c-0.373-1.707-1.146-2.949-2.318-3.727
		c-1.174-0.779-2.651-1.17-4.438-1.17c-2.117,0-3.9,0.812-5.349,2.434c-1.446,1.621-2.171,4.037-2.171,7.25
		c0,2.775,0.596,5.035,1.791,6.779c1.194,1.744,3.143,2.615,5.842,2.615c2.067,0,3.779-0.611,5.135-1.836
		c1.355-1.223,2.05-3.203,2.08-5.938h-7.313l0.001-2.623h10.254v12.496h-2.034l-0.763-3.004c-1.055,1.176-1.986,1.992-2.801,2.447
		c-1.365,0.785-3.102,1.178-5.207,1.176c-2.721,0.002-5.062-0.895-7.021-2.688c-2.137-2.244-3.206-5.33-3.205-9.252
		c0-3.91,1.043-7.021,3.133-9.332c1.984-2.203,4.555-3.307,7.709-3.307C771.58,216.543,773.451,216.967,775.028,217.815z"/>
</g>
<g>
	<path fill="#FF931E" d="M738.155,433.85c2.287,1.219,3.687,3.354,4.198,6.406h-3.132c-0.374-1.707-1.147-2.951-2.319-3.729
		c-1.175-0.779-2.653-1.168-4.438-1.168c-2.117,0-3.9,0.811-5.35,2.432c-1.447,1.621-2.171,4.039-2.172,7.25
		c0,2.777,0.598,5.037,1.793,6.779c1.195,1.744,3.143,2.617,5.843,2.617c2.065,0,3.777-0.613,5.133-1.836
		c1.356-1.225,2.05-3.205,2.081-5.939h-7.312l-0.001-2.623h10.255v12.496h-2.035l-0.763-3.004c-1.053,1.176-1.986,1.992-2.8,2.447
		c-1.365,0.785-3.101,1.178-5.207,1.178c-2.722,0-5.062-0.895-7.022-2.688c-2.138-2.246-3.206-5.332-3.206-9.252
		c0-3.912,1.045-7.023,3.135-9.334c1.985-2.203,4.555-3.305,7.709-3.307C734.707,432.576,736.577,433,738.155,433.85z"/>
</g>
<g>
	<path fill="#7AC943" d="M738.984,220.104c1.612,1.558,2.51,3.329,2.689,5.31h-3.084c-0.345-1.506-1.029-2.697-2.053-3.576
		c-1.027-0.88-2.465-1.32-4.318-1.32c-2.258,0-4.08,0.809-5.47,2.428c-1.389,1.617-2.085,4.096-2.084,7.438
		c-0.001,2.736,0.626,4.957,1.882,6.659c1.254,1.703,3.126,2.554,5.613,2.554c2.293,0,4.035-0.896,5.232-2.687
		c0.635-0.944,1.108-2.185,1.422-3.721h3.08c-0.271,2.46-1.17,4.521-2.702,6.185c-1.834,2.004-4.306,3.004-7.417,3.004
		c-2.683,0-4.936-0.821-6.756-2.465c-2.399-2.174-3.6-5.531-3.599-10.07c0-3.447,0.901-6.273,2.702-8.479
		c1.949-2.397,4.633-3.596,8.061-3.596C735.103,217.768,737.372,218.547,738.984,220.104z"/>
</g>
<circle fill="#FFFFFF" stroke="#000000" stroke-width="3" stroke-miterlimit="10" cx="769.2" cy="301.696" r="17.903"/>
<g>
	<path fill="#FF931E" d="M774.971,291.019c2.289,1.219,3.688,3.354,4.199,6.406l-3.133,0.001c-0.373-1.707-1.146-2.95-2.318-3.729
		c-1.174-0.778-2.652-1.167-4.438-1.167c-2.119,0-3.9,0.809-5.35,2.431c-1.449,1.621-2.174,4.038-2.174,7.249
		c0,2.777,0.6,5.037,1.793,6.781s3.141,2.615,5.84,2.617c2.068-0.002,3.781-0.613,5.135-1.836c1.355-1.225,2.049-3.205,2.082-5.939
		h-7.314v-2.623h10.256v12.496h-2.033l-0.762-3.006c-1.057,1.178-1.986,1.994-2.799,2.449c-1.367,0.785-3.104,1.178-5.209,1.178
		c-2.721,0-5.062-0.896-7.021-2.688c-2.139-2.246-3.207-5.332-3.207-9.254c0-3.91,1.045-7.019,3.133-9.332
		c1.986-2.203,4.557-3.307,7.711-3.307C771.523,289.747,773.393,290.171,774.971,291.019z"/>
</g>
<line fill="none" stroke="#000000" stroke-width="2" stroke-miterlimit="10" x1="826.354" y1="361.072" x2="832.6" y2="348.013"/>
<circle fill="#FF931E" stroke="#000000" stroke-width="2" stroke-miterlimit="10" cx="834.938" cy="343.062" r="6.751"/>
<circle fill="#FFFFFF" stroke="#000000" stroke-width="3" stroke-miterlimit="10" cx="870.104" cy="404.082" r="17.903"/>
<g>
	<path fill="#3FA9F5" d="M866.677,391.744h3.572l8.475,23.354h-3.464l-2.438-6.994h-9.163l-2.532,6.994l-3.245,0.002
		L866.677,391.744z M871.923,405.527l-3.596-10.318l-3.735,10.318H871.923z"/>
</g>
<line fill="none" stroke="#000000" stroke-width="2" stroke-miterlimit="10" x1="853.448" y1="396.055" x2="842.3" y2="386.549"/>
<circle fill="#3FA9F5" stroke="#000000" stroke-width="2" stroke-miterlimit="10" cx="838.244" cy="383.341" r="6.751"/>
<circle fill="#FFFFFF" stroke="#000000" stroke-width="3" stroke-miterlimit="10" cx="881.196" cy="336.993" r="17.903"/>
<g>
	<path fill="#FF1D25" d="M891.444,325.66l0.001,2.783h-7.871v20.573l-3.195-0.001v-20.572h-7.869v-2.783H891.444z"/>
</g>
<line fill="none" stroke="#000000" stroke-width="2" stroke-miterlimit="10" x1="882.176" y1="354.078" x2="881.938" y2="368.727"/>
<circle fill="#FF1D25" stroke="#000000" stroke-width="2" stroke-miterlimit="10" cx="882.043" cy="373.897" r="6.75"/>
<circle fill="#FFFFFF" stroke="#000000" stroke-width="3" stroke-miterlimit="10" cx="843.817" cy="296.058" r="17.903"/>
<g>
	<path fill="#7AC943" d="M850.604,286.848c1.611,1.559,2.506,3.33,2.686,5.31h-3.082c-0.346-1.505-1.029-2.697-2.055-3.577
		c-1.025-0.879-2.465-1.319-4.314-1.319c-2.26,0-4.084,0.81-5.473,2.427s-2.084,4.098-2.084,7.438c0,2.738,0.625,4.957,1.881,6.66
		c1.254,1.703,3.127,2.554,5.613,2.554c2.295,0,4.035-0.896,5.232-2.688c0.635-0.941,1.109-2.183,1.422-3.719h3.084
		c-0.275,2.459-1.174,4.521-2.705,6.184c-1.832,2.004-4.307,3.005-7.416,3.006c-2.684,0-4.936-0.822-6.758-2.467
		c-2.398-2.174-3.598-5.531-3.598-10.069c0-3.447,0.9-6.273,2.701-8.479c1.949-2.396,4.637-3.596,8.062-3.596
		C846.721,284.512,848.99,285.29,850.604,286.848z"/>
</g>
<line fill="none" stroke="#000000" stroke-width="2" stroke-miterlimit="10" x1="860.336" y1="288.57" x2="870.668" y2="278.179"/>
<circle fill="#7AC943" stroke="#000000" stroke-width="2" stroke-miterlimit="10" cx="874.174" cy="274.379" r="6.75"/>
<g>
	<rect x="707.451" y="569.873" fill="none" width="20.079" height="30.93"/>
	<path d="M708.491,578.598c-0.486-0.592-0.729-1.311-0.729-2.158l1.196-0.002c0.051,0.592,0.16,1.018,0.33,1.285
		c0.297,0.48,0.832,0.721,1.609,0.721c0.6,0,1.084-0.162,1.449-0.484c0.363-0.322,0.546-0.738,0.547-1.246
		c0-0.627-0.191-1.066-0.576-1.316c-0.383-0.25-0.918-0.375-1.6-0.375c-0.076,0-0.154,0-0.232,0.002
		c-0.078,0.004-0.157,0.008-0.238,0.01v-1.01c0.117,0.014,0.218,0.021,0.299,0.025c0.08,0.006,0.168,0.006,0.26,0.006
		c0.428,0,0.781-0.066,1.057-0.203c0.482-0.238,0.725-0.662,0.725-1.271c0-0.453-0.161-0.803-0.483-1.049s-0.697-0.369-1.126-0.369
		c-0.763,0-1.291,0.254-1.584,0.764c-0.16,0.279-0.252,0.676-0.272,1.195l-1.132-0.002c0-0.678,0.135-1.254,0.406-1.729
		c0.467-0.848,1.287-1.273,2.461-1.273c0.928,0,1.646,0.207,2.156,0.621c0.508,0.412,0.764,1.012,0.764,1.797
		c-0.001,0.559-0.15,1.014-0.452,1.359c-0.187,0.217-0.429,0.387-0.726,0.51c0.479,0.133,0.854,0.385,1.123,0.76
		s0.404,0.834,0.404,1.377c0,0.869-0.287,1.578-0.858,2.125c-0.572,0.549-1.384,0.82-2.436,0.82
		C709.758,579.484,708.976,579.189,708.491,578.598z"/>
	<path d="M715.774,572.609c0.236-0.037,0.414-0.168,0.537-0.393c0.121-0.225,0.182-0.484,0.184-0.775
		c0-0.029-0.002-0.055-0.004-0.08c-0.002-0.021-0.008-0.049-0.016-0.078h-0.7l-0.001-1.387h1.36v1.279
		c0.001,0.541-0.112,1.004-0.335,1.381c-0.227,0.381-0.566,0.598-1.025,0.652V572.609z"/>
</g>
<g>
	<rect x="704.441" y="171.185" fill="none" width="20.078" height="30.931"/>
	<path d="M706.049,178.228c0.077,0.653,0.38,1.104,0.908,1.354c0.273,0.127,0.587,0.191,0.94,0.191c0.678,0,1.18-0.217,1.509-0.648
		c0.326-0.434,0.486-0.912,0.486-1.438c0-0.637-0.193-1.129-0.582-1.476c-0.387-0.347-0.853-0.522-1.395-0.522
		c-0.395,0-0.733,0.076-1.016,0.229c-0.282,0.151-0.521,0.364-0.721,0.636l-0.991-0.057l0.692-4.904h4.734v1.106l-3.873-0.001
		l-0.389,2.532c0.213-0.161,0.414-0.282,0.604-0.362c0.339-0.141,0.731-0.21,1.177-0.21c0.834,0,1.543,0.27,2.123,0.808
		c0.582,0.538,0.873,1.221,0.872,2.047c0.001,0.861-0.267,1.62-0.799,2.277s-1.38,0.986-2.547,0.986
		c-0.743,0-1.399-0.209-1.968-0.627c-0.57-0.418-0.889-1.059-0.957-1.924L706.049,178.228L706.049,178.228z"/>
	<path d="M712.765,173.922c0.235-0.038,0.412-0.17,0.535-0.395c0.122-0.224,0.184-0.482,0.184-0.775
		c0.001-0.028-0.002-0.057-0.003-0.079c-0.003-0.022-0.009-0.05-0.016-0.079h-0.698l0.001-1.386l1.361-0.001v1.279
		c0,0.543-0.115,1.004-0.338,1.383c-0.224,0.381-0.565,0.596-1.024,0.652L712.765,173.922L712.765,173.922z"/>
</g>
<g>
	<rect x="789.893" y="170.423" fill="none" width="20.076" height="30.932"/>
	<path d="M790.931,179.147c-0.485-0.592-0.728-1.312-0.728-2.16l1.195,0.002c0.051,0.59,0.161,1.016,0.328,1.283
		c0.299,0.479,0.834,0.719,1.611,0.719c0.602,0,1.085-0.16,1.45-0.484c0.364-0.322,0.547-0.736,0.547-1.246
		c-0.001-0.627-0.192-1.064-0.575-1.316c-0.383-0.25-0.917-0.375-1.6-0.375c-0.076-0.002-0.153,0.002-0.232,0.004
		c-0.078,0.002-0.158,0.004-0.238,0.01v-1.01c0.117,0.012,0.22,0.02,0.299,0.023c0.08,0.006,0.17,0.008,0.261,0.008
		c0.43,0,0.78-0.068,1.058-0.203c0.482-0.238,0.724-0.662,0.725-1.271c-0.001-0.455-0.162-0.803-0.484-1.049
		c-0.324-0.248-0.697-0.369-1.125-0.369c-0.766-0.002-1.293,0.254-1.586,0.764c-0.162,0.277-0.251,0.678-0.273,1.195h-1.133
		c0-0.68,0.136-1.256,0.407-1.73c0.466-0.85,1.287-1.271,2.46-1.273c0.931,0.002,1.648,0.209,2.157,0.621
		c0.511,0.412,0.763,1.012,0.764,1.795c-0.001,0.561-0.149,1.014-0.453,1.361c-0.186,0.217-0.428,0.385-0.724,0.51
		c0.479,0.131,0.853,0.385,1.121,0.76c0.271,0.375,0.406,0.834,0.406,1.377c0,0.869-0.287,1.578-0.858,2.125
		c-0.572,0.547-1.384,0.82-2.435,0.82C792.197,180.034,791.416,179.739,790.931,179.147z"/>
	<path d="M798.215,173.159c0.236-0.039,0.414-0.17,0.537-0.393c0.123-0.225,0.183-0.484,0.183-0.775c0-0.031-0.001-0.057-0.003-0.08
		s-0.008-0.049-0.015-0.08h-0.699l-0.001-1.387l1.36,0.002l0.001,1.277c0,0.541-0.113,1.004-0.336,1.383
		c-0.224,0.381-0.566,0.596-1.023,0.65L798.215,173.159L798.215,173.159z"/>
</g>
<g>
	<rect x="789.313" y="318.66" fill="none" width="20.078" height="30.93"/>
	<path d="M790.921,325.702c0.076,0.65,0.383,1.105,0.91,1.354c0.271,0.127,0.586,0.191,0.941,0.191c0.68,0,1.182-0.217,1.508-0.646
		c0.328-0.432,0.49-0.912,0.49-1.438c0-0.637-0.195-1.129-0.584-1.477c-0.387-0.348-0.852-0.521-1.395-0.521
		c-0.395,0-0.732,0.078-1.014,0.229c-0.281,0.152-0.523,0.365-0.723,0.637l-0.99-0.057l0.695-4.902h4.729v1.105h-3.871l-0.389,2.531
		c0.213-0.162,0.414-0.279,0.605-0.363c0.34-0.139,0.73-0.209,1.176-0.209c0.836,0,1.545,0.27,2.123,0.809
		c0.582,0.537,0.871,1.219,0.871,2.047c0,0.859-0.266,1.619-0.797,2.277c-0.533,0.656-1.381,0.984-2.549,0.984
		c-0.74,0-1.396-0.209-1.967-0.627c-0.57-0.416-0.889-1.059-0.957-1.924H790.921L790.921,325.702z"/>
	<path d="M797.638,321.396c0.236-0.037,0.414-0.168,0.537-0.393c0.121-0.223,0.184-0.484,0.184-0.775
		c0-0.029-0.002-0.057-0.004-0.078c-0.004-0.023-0.008-0.051-0.016-0.08h-0.699v-1.389l1.361,0.002v1.277
		c0,0.543-0.111,1.004-0.338,1.383c-0.223,0.381-0.564,0.598-1.023,0.652v-0.598L797.638,321.396L797.638,321.396z"/>
</g>
<g>
	
		<ellipse fill="none" stroke="#000000" stroke-width="4" stroke-miterlimit="10" stroke-dasharray="11.8507,11.8507" cx="861.032" cy="340.608" rx="53.343" ry="94.655"/>
</g>
<g>
	<g>
		<line fill="none" stroke="#000000" stroke-width="4" stroke-miterlimit="10" x1="861.328" y1="435" x2="861.328" y2="441"/>
		
			<line fill="none" stroke="#000000" stroke-width="4" stroke-miterlimit="10" stroke-dasharray="12,12" x1="861.328" y1="453" x2="861.328" y2="495"/>
		<line fill="none" stroke="#000000" stroke-width="4" stroke-miterlimit="10" x1="861.328" y1="501" x2="861.328" y2="507"/>
		<g>
			<path d="M861.328,531c-4.215-11.359-11.406-25.453-19.023-34.189l19.023,6.881l19.02-6.881
				C872.73,505.547,865.539,519.641,861.328,531z"/>
		</g>
	</g>
</g>
<rect x="826.793" y="541.829" fill="none" width="123.535" height="92.825"/>
<text transform="matrix(1 0 0 1 826.793 554.7715)"><tspan x="0" y="0" font-family="'Helvetica'" font-size="18">Cleave </tspan><tspan x="0" y="21.6" font-family="'Helvetica'" font-size="18">fluorescence,</tspan><tspan x="0" y="43.199" font-family="'Helvetica'" font-size="18">wash away</tspan></text>
<ellipse fill="#3FA9F5" stroke="#000000" stroke-width="4" stroke-miterlimit="10" cx="446.736" cy="156.52" rx="33.265" ry="15.52"/>
<line fill="none" stroke="#000000" stroke-width="4" stroke-miterlimit="10" x1="413.47" y1="156.313" x2="435.772" y2="94"/>
<line fill="none" stroke="#000000" stroke-width="4" stroke-miterlimit="10" x1="480.771" y1="156.313" x2="458.471" y2="94"/>
<rect x="501.328" y="41" fill="none" stroke="#000000" stroke-width="4" stroke-miterlimit="10" width="200" height="49"/>
<text transform="matrix(1 0 0 1 540.4443 71)" fill="#FF931E" font-family="'Menlo-Regular'" font-size="18">orange = G</text>
<text transform="matrix(1 0 0 1 778.8965 74.75)"><tspan x="0" y="0" fill="#3FA9F5" font-family="'Helvetica'" font-size="24">A</tspan><tspan x="16.008" y="0" fill="#FF931E" font-family="'Helvetica'" font-size="24">G</tspan><tspan x="34.676" y="0" fill="#FF1D25" font-family="'Helvetica'" font-size="24">T</tspan><tspan x="49.336" y="0" fill="#FF931E" font-family="'Helvetica'" font-size="24">G</tspan></text>
<g>
	<g>
		<path fill="none" stroke="#000000" stroke-width="2" stroke-miterlimit="10" d="M446.735,84c0-8.31,11.965-15.331,28.465-17.67"/>
		<g>
			<path d="M487.244,65.5c-5.501,2.537-12.252,6.662-16.315,10.794l2.701-9.748l-4.159-9.218
				C474.118,60.791,481.42,63.836,487.244,65.5z"/>
		</g>
	</g>
</g>
<g>
	<g>
		<line fill="none" stroke="#000000" stroke-width="2" stroke-miterlimit="10" x1="708.328" y1="65" x2="757.328" y2="65"/>
		<g>
			<path d="M769.47,65.43c-5.68,2.107-12.727,5.703-17.095,9.512l3.44-9.512l-3.44-9.51C756.743,59.729,763.79,63.325,769.47,65.43z
				"/>
		</g>
	</g>
</g>
<rect x="501.448" y="17" fill="none" width="103.5" height="25.43"/>
<text transform="matrix(1 0 0 1 501.4482 34.2559)" font-family="'Helvetica'" font-size="24">computer</text>
<rect x="778.124" y="17" fill="none" width="103.5" height="25.43"/>
<text transform="matrix(1 0 0 1 778.124 34.2559)" font-family="'Helvetica'" font-size="24">readout</text>
<g>
	<g>
		<path fill="none" stroke="#000000" stroke-width="3" stroke-miterlimit="10" d="M137.447,618.368
			c51.628,49.917,301.75,43.688,593.225-18.044"/>
		<g>
			<path d="M128.27,602.757c1.812,8.904,2.812,20.729,1.418,29.31l9.394-11.914l14.839-3.147
				C145.61,614.456,135.45,608.325,128.27,602.757z"/>
		</g>
	</g>
</g>
<rect x="309.328" y="624.9" fill="none" width="123.536" height="92.825"/>
<text transform="matrix(1 0 0 1 309.3276 642.1562)" font-family="'Helvetica'" font-size="24">repeat</text>
<rect x="305.02" y="99" fill="none" width="103.5" height="62.313"/>
<text transform="matrix(1 0 0 1 339.145 116.2559)"><tspan x="0" y="0" font-family="'Helvetica'" font-size="24">optical </tspan><tspan x="-2.66" y="28.8" font-family="'Helvetica'" font-size="24">sensor</tspan></text>
<rect x="-23.671" y="595.333" fill="none" width="103.5" height="62.313"/>
<text transform="matrix(1 0 0 1 10.7817 608.2754)"><tspan x="0" y="0" font-family="'Helvetica'" font-size="18">attach to </tspan><tspan x="5.027" y="21.6" font-family="'Helvetica'" font-size="18">flow cell</tspan></text>
<g>
	<g>
		<line fill="none" stroke="#000000" stroke-width="4" stroke-miterlimit="10" x1="94.328" y1="576" x2="94.328" y2="652"/>
		<g>
			<path d="M94.328,676.242c-4.215-11.359-11.406-25.453-19.023-34.189l19.023,6.881l19.02-6.881
				C105.73,650.789,98.539,664.883,94.328,676.242z"/>
		</g>
	</g>
</g>
<circle fill="#FFFFFF" stroke="#000000" stroke-width="3" stroke-miterlimit="10" cx="441.461" cy="268.924" r="17.901"/>
<circle fill="#FFFFFF" stroke="#000000" stroke-width="3" stroke-miterlimit="10" cx="442.127" cy="193.625" r="17.903"/>
<circle fill="#FFFFFF" stroke="#000000" stroke-width="3" stroke-miterlimit="10" cx="441.283" cy="231.642" r="17.903"/>
<g>
	<path fill="#FF1D25" d="M450.073,258.28v2.781h-7.869v20.572h-3.197v-20.572l-7.869,0.002v-2.783H450.073z"/>
</g>
<g>
	<path fill="#3FA9F5" d="M439.97,181.203h3.571l8.477,23.354l-3.465,0.002l-2.439-6.996h-9.162l-2.533,6.996h-3.244L439.97,181.203z
		 M445.217,194.988l-3.596-10.318l-3.735,10.316L445.217,194.988z"/>
</g>
<g>
	<path fill="#FF931E" d="M446.695,220.852c2.287,1.219,3.688,3.354,4.198,6.406h-3.133c-0.373-1.707-1.146-2.949-2.318-3.727
		c-1.174-0.779-2.651-1.17-4.438-1.17c-2.117,0-3.9,0.812-5.349,2.434c-1.446,1.621-2.171,4.037-2.171,7.25
		c0,2.775,0.596,5.035,1.791,6.779c1.194,1.744,3.143,2.615,5.842,2.615c2.067,0,3.779-0.611,5.135-1.836
		c1.355-1.223,2.05-3.203,2.08-5.938h-7.313l0.001-2.623h10.254v12.496h-2.034l-0.763-3.004c-1.055,1.176-1.986,1.992-2.801,2.447
		c-1.365,0.785-3.102,1.178-5.207,1.176c-2.721,0.002-5.062-0.895-7.021-2.688c-2.137-2.244-3.206-5.33-3.205-9.252
		c0-3.91,1.043-7.021,3.133-9.332c1.984-2.203,4.555-3.307,7.709-3.307C443.247,219.58,445.118,220.004,446.695,220.852z"/>
</g>
<g>
	<g>
		<line fill="none" stroke="#000000" stroke-width="4" stroke-miterlimit="10" x1="92.328" y1="177" x2="92.328" y2="79"/>
		<g>
			<path d="M92.328,54.994c4.215,11.359,11.406,25.453,19.023,34.189l-19.023-6.881l-19.02,6.881
				C80.925,80.447,88.117,66.353,92.328,54.994z"/>
		</g>
	</g>
</g>
<rect x="2.667" y="94.666" fill="none" width="75.5" height="62.313"/>
<text transform="matrix(1 0 0 1 27.1641 107.6079)"><tspan x="0" y="0" font-family="'Helvetica'" font-size="18">primer </tspan><tspan x="-17.042" y="21.6" font-family="'Helvetica'" font-size="18">attaches </tspan><tspan x="14.977" y="43.2" font-family="'Helvetica'" font-size="18">here</tspan></text>
<circle fill="#FFFFFF" stroke="#000000" stroke-width="3" stroke-miterlimit="10" cx="131.794" cy="156.625" r="17.903"/>
<circle fill="#FFFFFF" stroke="#000000" stroke-width="3" stroke-miterlimit="10" cx="131.794" cy="119.292" r="17.903"/>
<circle fill="#FFFFFF" stroke="#000000" stroke-width="3" stroke-miterlimit="10" cx="131.46" cy="83.292" r="17.903"/>
<circle fill="#FFFFFF" stroke="#000000" stroke-width="3" stroke-miterlimit="10" cx="441.867" cy="304.696" r="17.903"/>
<g>
	<path fill="#FF931E" d="M447.638,294.019c2.289,1.219,3.688,3.354,4.199,6.406l-3.133,0.001c-0.373-1.707-1.146-2.95-2.318-3.729
		c-1.174-0.778-2.652-1.167-4.438-1.167c-2.119,0-3.9,0.809-5.35,2.431c-1.45,1.621-2.173,4.038-2.173,7.249
		c-0.001,2.777,0.599,5.037,1.792,6.781c1.193,1.744,3.141,2.615,5.84,2.616c2.068-0.001,3.781-0.612,5.135-1.836
		c1.355-1.225,2.049-3.204,2.082-5.938h-7.314v-2.623h10.256v12.496h-2.033l-0.762-3.005c-1.057,1.178-1.986,1.994-2.799,2.449
		c-1.367,0.785-3.104,1.178-5.209,1.178c-2.721,0-5.062-0.896-7.022-2.687c-2.139-2.247-3.207-5.332-3.207-9.254
		c0-3.91,1.046-7.02,3.134-9.332c1.986-2.203,4.556-3.307,7.71-3.307C444.19,292.746,446.06,293.171,447.638,294.019z"/>
</g>
<circle fill="#FFFFFF" stroke="#000000" stroke-width="3" stroke-miterlimit="10" cx="770.2" cy="264.972" r="17.901"/>
<g>
	<path fill="#FF1D25" d="M778.812,254.328v2.781h-7.869v20.572h-3.197v-20.572l-7.869,0.002v-2.783H778.812z"/>
</g>
</svg>
